<svg width="385" height="512" viewBox="0 0 385 512" fill="none" xmlns="http://www.w3.org/2000/svg">
<path fill-rule="evenodd" clip-rule="evenodd" d="M291.874 0L207.436 41.9752L291.874 83.9504L375.825 41.9752L291.874 0Z" fill="#929898"/>
<path d="M375.825 41.9752L291.874 83.9504V135.687V161.556V212.805L298.707 209.428L302.124 207.739L335.943 191.026L365.575 176.383L375.825 171.317V41.9752Z" fill="#494C4C"/>
<path d="M207.436 93.7121L228.423 103.962V117.14L239.161 122.021V135.199L228.423 129.913L217.685 124.627L207.436 119.581V93.7121Z" fill="#212121"/>
<path d="M291.874 135.687L270.887 125.438V138.128L260.637 133.247V146.425L270.887 151.39L281.624 156.591L291.874 161.556V135.687Z" fill="#212121"/>
<path d="M260.637 146.425V159.115L270.887 163.996V151.39L260.637 146.425Z" fill="#224929"/>
<path d="M270.887 151.39V163.996L281.624 169.365V156.591L270.887 151.39Z" fill="white"/>
<path d="M239.161 148.378V135.199L228.423 129.913V143.009L239.161 148.378Z" fill="#224929"/>
<path d="M228.423 143.009V129.913L217.685 124.627V137.64L228.423 143.009Z" fill="white"/>
<path d="M291.874 83.9504L207.436 41.9752V93.7121L228.423 103.962V117.14L239.161 122.021V135.199V148.378L260.149 158.627V197.034L270.77 202.313L291.874 212.805V161.556L281.624 156.591V169.365L270.887 163.996L260.637 159.115V146.425V133.247L270.887 138.128V125.438L291.874 135.687V83.9504Z" fill="#6C7070"/>
<path d="M207.436 119.581V123.485V148.378V170.829L218.174 176.167V158.627L239.161 148.378L228.423 143.009L217.685 137.64V124.627L207.436 119.581Z" fill="#6C7070"/>
<path d="M218.174 158.627V176.167V187.912V210.364L219.961 211.113L222.078 210.746L224.519 210.323L239.161 207.787V168.877L218.174 158.627Z" fill="#4E5454"/>
<path d="M260.149 197.034V158.627L239.161 168.877V207.787L258.44 204.449L260.149 204.153V197.034Z" fill="#242727"/>
<path d="M239.161 148.378L218.174 158.627L239.161 168.877L260.149 158.627L239.161 148.378Z" fill="#4A4F4F"/>
<path d="M239.161 207.787L224.519 210.323L239.161 215.733V207.787Z" fill="#4E5454"/>
<path d="M258.44 204.449L239.161 207.787V215.733L258.44 204.449Z" fill="#242727"/>
<path d="M298.707 209.428L302.124 211.34V207.739L298.707 209.428Z" fill="#432515"/>
<path d="M302.124 211.34L326.501 196.698L335.943 191.026L302.124 207.739V211.34Z" fill="#2C160B"/>
<path d="M384.61 265.518L379.241 214.269L350.932 219.251L353.373 245.018L368.015 242.578L370.456 267.969L384.61 265.518Z" fill="#485756"/>
<path d="M350.932 219.251L379.241 214.269L373.723 200.114L345.075 204.995L350.932 219.251Z" fill="#658684"/>
<path d="M368.015 185.472L365.575 185.895L335.943 191.026L326.501 196.698L330.433 207.436L345.075 204.995L373.723 200.114L368.015 185.472Z" fill="#4E2A18"/>
<path d="M260.149 204.153L258.44 204.449L239.161 215.733L247.947 237.374L277.232 232.22L266.006 203.138L260.149 204.153Z" fill="#383938"/>
<path d="M247.947 237.374L252.827 288.34L255.756 287.833L282.112 283.269L277.232 232.22L247.947 237.374Z" fill="#181818"/>
<path d="M193.281 215.733L204.507 245.018L232.816 240.036L222.078 210.746L219.961 211.113L204.263 213.831L195.234 215.395L193.281 215.733Z" fill="#8A9090"/>
<path d="M204.507 245.018L209.876 295.779L229.399 292.398L236.233 291.214L238.185 290.876L232.816 240.036L204.507 245.018Z" fill="#424646"/>
<path d="M204.507 245.018L193.281 215.733L193.518 218.174L198.162 266.006L207.436 289.576L209.876 295.779L204.507 245.018Z" fill="#696E6E"/>
<path d="M239.161 215.733L224.519 210.323L222.078 210.746L232.816 240.036L247.947 237.374L239.161 215.733Z" fill="#220F13"/>
<path d="M232.816 240.036L238.185 290.876L252.827 288.34L247.947 237.374L232.816 240.036Z" fill="#0C0305"/>
<path d="M291.874 212.805L270.77 202.313L266.006 203.138L277.232 232.22L350.932 219.251L345.075 204.995L330.433 207.436L326.501 196.698L302.124 211.34L298.707 209.428L291.874 212.805Z" fill="#4A252C"/>
<path fill-rule="evenodd" clip-rule="evenodd" d="M282.112 283.269L277.232 232.22L350.932 219.251L353.373 245.018L355.813 270.505L302.124 279.803L282.112 283.269Z" fill="#210D11"/>
<path d="M368.015 242.578L353.373 245.018L355.813 270.505L365.575 268.814L370.456 267.969L368.015 242.578Z" fill="#304241"/>
<path d="M365.575 176.383L335.943 191.026L365.575 185.895V176.383Z" fill="#2C160B"/>
<path d="M302.124 279.803L282.112 283.269L255.756 287.833L302.124 310.909V279.803Z" fill="#250E12"/>
<path d="M365.575 268.814L355.813 270.505L302.124 279.803V310.909L365.575 279.672V268.814Z" fill="#160609"/>
<path d="M252.827 288.34L238.185 290.876L236.233 291.214L302.124 324.088V310.909L255.756 287.833L252.827 288.34Z" fill="#2B1207"/>
<path d="M365.575 292.85V286.993V279.672L302.124 310.909V324.088L365.575 292.85Z" fill="#1A0903"/>
<path d="M229.399 292.398L230.864 293.134L279.184 317.433L302.124 328.969V324.088L236.233 291.214L229.399 292.398Z" fill="#1C1C1B"/>
<path d="M375.825 292.362L365.575 286.993V292.85L302.124 324.088V328.969L375.825 292.362Z" fill="#10100F"/>
<path d="M229.399 292.398L209.876 295.779L207.436 289.576V323.112L230.864 334.705V293.134L229.399 292.398Z" fill="#272827"/>
<path d="M302.124 369.968V328.969L279.184 317.433V358.616L302.124 369.968Z" fill="#272827"/>
<path fill-rule="evenodd" clip-rule="evenodd" d="M230.864 293.134V334.705L279.184 358.616V317.433L230.864 293.134ZM266.982 338.73V325.064L243.066 313.35V327.016L266.982 338.73Z" fill="#496160"/>
<path d="M266.982 325.064V338.73L243.066 327.016V313.35L266.982 325.064Z" fill="#1C1C1B"/>
<path d="M375.825 292.362L302.124 328.969V369.968L375.825 333.361V292.362Z" fill="#181818"/>
<path d="M270.77 202.313L260.149 197.034V204.153L266.006 203.138L270.77 202.313Z" fill="#505454"/>
<path d="M230.864 334.705L207.436 323.112V336.778L302.124 384.122V369.968L279.184 358.616L230.864 334.705Z" fill="#2B1207"/>
<path d="M375.825 333.361L302.124 369.968V384.122L375.825 347.516V333.361Z" fill="#1A0903"/>
<path d="M302.124 384.122L207.436 336.778V377.777L218.662 383.146V371.92V369.48L221.59 370.944L228.423 374.36L243.066 381.682V368.015L266.982 379.729V393.884L290.898 405.598V419.264L302.124 425.121V384.122Z" fill="#250E12"/>
<path d="M375.825 347.516L302.124 384.122V425.121L312.862 419.752L326.528 412.919V426.585L354.837 412.571L375.825 402.181V347.516Z" fill="#160609"/>
<path d="M302.124 425.121L290.898 419.264V405.598L266.982 393.884V379.729L243.066 368.015V381.682L228.423 374.36V392.419L312.862 434.395V419.752L302.124 425.121Z" fill="#132525"/>
<path d="M326.528 426.585V412.919L312.862 419.752V434.395L344.587 418.776V431.466L354.837 426.585V412.571L326.528 426.585Z" fill="#091010"/>
<path d="M312.862 434.395L228.423 392.419V470.025L312.862 512V434.395Z" fill="#371C0F"/>
<path d="M354.837 426.585L344.587 431.466V418.776L312.862 434.395V512L354.837 491.012V426.585Z" fill="#231007"/>
<path d="M181.567 232.816L171.317 230.132V234.28L159.115 235.256L159.603 243.066L146.913 244.53L147.089 248.923L147.401 256.732L160.58 255.268L161.068 262.589L174.246 261.125L174.734 268.934L185.472 267.47L181.567 232.816Z" fill="#696E6E"/>
<path d="M193.281 215.733L183.031 213.293L170.341 214.757L170.433 215.733L171.073 224.031L171.317 230.132L181.567 232.816L193.518 218.174L193.281 215.733Z" fill="#8A9090"/>
<path d="M198.162 266.006L193.518 218.174L181.567 232.816L185.472 267.47H187.912L188.888 277.72L198.162 266.006Z" fill="#424646"/>
<path d="M182.543 205.483L183.031 213.293L193.281 215.733L195.234 215.395L201.477 207.924L190.841 204.845L182.543 205.483Z" fill="#220F13"/>
<path d="M207.436 195.234L194.745 196.698L195.234 204.507L190.841 204.845L201.477 207.924L208.412 199.626L215.733 190.841L206.928 188.888L207.436 195.234Z" fill="#383938"/>
<path d="M218.174 176.167L207.436 170.829V148.378L190.425 144.473L169.853 169.853L191.817 167.413L192.793 174.734L205.483 173.758L206.459 183.031L206.928 188.888L215.733 190.841L218.174 187.912V176.167Z" fill="#4A252C"/>
<path d="M166.437 174.246L163.02 178.151H166.437V174.246Z" fill="#4A252C"/>
<path d="M207.436 123.485L190.425 144.473L207.436 148.378V123.485Z" fill="#658684"/>
<path d="M174.734 268.934L174.246 261.125L161.068 262.589L162.044 270.457L174.734 268.934Z" fill="#969696"/>
<path d="M148.378 267.47L148.866 271.863L162.044 270.457L161.068 262.589L148.067 264.053L148.378 267.47Z" fill="#555555"/>
<path d="M135.687 268.446L148.378 267.47L148.067 264.053L147.401 256.732L134.711 258.196L134.944 260.637L135.455 266.006L135.687 268.446Z" fill="#555555"/>
<path d="M121.045 251.851L122.509 262.589L134.944 260.637L134.711 258.196L134.223 250.387L121.045 251.851Z" fill="#555555"/>
<path d="M161.068 262.589L160.58 255.268L147.401 256.732L148.067 264.053L161.068 262.589Z" fill="#969696"/>
<path d="M134.711 258.196L147.401 256.732L147.089 248.923L134.223 250.387L134.711 258.196Z" fill="#969696"/>
<path d="M93.7121 239.649L106.89 238.185L105.914 230.864L93.224 232.328L93.7121 239.649Z" fill="#969696"/>
<path d="M107.378 245.994L120.557 244.53L119.581 237.209L106.89 238.185L107.378 245.994Z" fill="#969696"/>
<path d="M120.557 244.53L121.045 251.851L134.223 250.387L133.247 243.066L120.557 244.53Z" fill="#969696"/>
<path d="M52.7131 213.781L51.7369 206.459L39.0467 207.924L39.5348 215.245L52.7131 213.781Z" fill="#969696"/>
<path d="M66.3794 220.126L65.4032 212.805L52.7131 213.781L53.2011 221.59L66.3794 220.126Z" fill="#969696"/>
<path d="M79.5577 226.471L79.0696 218.662L66.3794 220.126V227.447L79.5577 226.471Z" fill="#969696"/>
<path d="M53.2011 221.59L52.7131 213.781L39.5348 215.245L40.511 223.054L53.2011 221.59Z" fill="#555555"/>
<path d="M66.3794 227.447V220.126L53.2011 221.59L54.1773 231.84L66.8065 230.864L66.3794 227.447Z" fill="#555555"/>
<path d="M80.0458 233.792L79.5577 226.471L66.3794 227.447L66.8065 230.864L67.3556 235.256L80.0458 233.792Z" fill="#555555"/>
<path d="M166.437 174.246V178.151L179.615 176.686L180.103 184.008L193.281 182.543L193.769 190.353L206.928 188.888L206.459 183.031L205.483 173.758L192.793 174.734L191.817 167.413L169.853 169.853L166.437 170.341V174.246Z" fill="#36200B"/>
<path d="M166.437 178.151H163.02L153.746 179.127L154.235 186.936L167.413 185.472L166.437 178.151Z" fill="#36200B"/>
<path d="M194.257 197.674L193.769 190.353L181.079 191.329L181.811 199.138L194.257 197.674Z" fill="#36200B"/>
<path d="M181.811 199.138L169.121 200.847L169.365 208.412L182.055 206.948L181.811 199.138Z" fill="#36200B"/>
<path d="M154.235 186.936L141.544 188.4L142.032 196.21L155.211 194.745L154.235 186.936Z" fill="#36200B"/>
<path d="M142.032 196.21L116.164 199.138L117.14 206.459L142.52 203.531L142.032 196.21Z" fill="#36200B"/>
<path d="M117.14 206.459L103.962 207.924L104.938 215.733L117.628 214.269L117.14 206.459Z" fill="#36200B"/>
<path d="M104.938 215.733L91.7598 217.197L92.2479 225.007L105.426 223.542L104.938 215.733Z" fill="#36200B"/>
<path d="M157.651 225.007L144.961 226.471L145.449 233.792L158.697 232.328L157.651 225.007Z" fill="#36200B"/>
<path d="M170.433 215.733L157.163 217.197L157.651 225.007L171.073 224.031L170.433 215.733Z" fill="#36200B"/>
<path d="M170.341 214.757L169.365 208.412L156.675 209.388L157.163 217.197L170.433 215.733L170.341 214.757Z" fill="#36200B"/>
<path d="M120.557 244.53L133.247 243.066L132.759 235.256L145.449 233.792L144.961 226.471L157.651 225.007L157.163 217.197L156.675 209.388L169.365 208.412L169.121 200.847L181.811 199.138L181.079 191.329L193.769 190.353L193.281 182.543L180.103 184.008L179.615 176.686L166.437 178.151L167.413 185.472L154.235 186.936L155.211 194.745L142.032 196.21L142.52 203.531L117.14 206.459L117.628 214.269L104.938 215.733L105.426 223.542L92.2479 225.007L93.224 232.328L105.914 230.864L106.89 238.185L119.581 237.209L120.557 244.53Z" fill="#6D4218"/>
<path d="M133.247 243.066L134.223 250.387L147.089 248.923L146.913 244.53L146.514 241.602L133.247 243.066Z" fill="#0D0601"/>
<path d="M146.913 244.53L159.603 243.066L159.115 235.256L158.697 232.328L145.449 233.792L146.514 241.602L146.913 244.53Z" fill="#0D0601"/>
<path d="M159.115 235.256L171.317 234.28V230.132L171.073 224.031L157.651 225.007L158.697 232.328L159.115 235.256Z" fill="#0D0601"/>
<path d="M170.341 214.757L183.031 213.293L182.055 206.948L169.365 208.412L170.341 214.757Z" fill="#0D0601"/>
<path d="M194.745 196.698L207.436 195.234L206.928 188.888L193.769 190.353L194.257 197.674L181.811 199.138L182.543 205.483L190.841 204.845L195.234 204.507L194.745 196.698Z" fill="#0D0601"/>
<path d="M183.031 213.293L182.543 205.483L181.811 199.138L182.055 206.948L183.031 213.293Z" fill="#0D0601"/>
<path d="M111.771 294.315L112.747 301.636L164.484 296.267L164.018 292.85L163.02 285.529L111.444 291.63L111.771 294.315Z" fill="#0D0601"/>
<path d="M164.484 296.267L164.972 303.588L178.151 302.124L177.663 294.315L176.93 291.142L164.018 292.85L164.484 296.267Z" fill="#0D0601"/>
<path d="M177.663 294.315L190.353 292.85L189.361 282.601L176.442 284.309L176.93 291.142L177.663 294.315Z" fill="#0D0601"/>
<path d="M85.4147 289.922L86.3909 297.243L111.771 294.315L111.444 291.63L110.551 284.309L85.1706 287.237L85.4147 289.922Z" fill="#0D0601"/>
<path d="M71.2602 280.648L70.7722 272.839L57.8379 275.035L58.082 277.72L58.5701 282.085L71.2602 280.648Z" fill="#0D0601"/>
<path d="M31.3563 269.91L43.9276 268.446L43.4395 260.637L30.6554 262.101L31.3563 269.91Z" fill="#0D0601"/>
<path d="M17.571 259.173L30.2612 257.708L29.285 247.459L16.6027 249.167L17.571 259.173Z" fill="#0D0601"/>
<path d="M1.95234 230.376L14.6425 228.911L13.4223 218.662L0.870636 220.37L1.95234 230.376Z" fill="#0D0601"/>
<path d="M92.2479 225.007L79.5577 226.471L80.0458 233.792L93.224 232.328L92.2479 225.007Z" fill="#969696"/>
<path d="M145.449 233.792L132.759 235.256L133.247 243.066L146.514 241.602L145.449 233.792Z" fill="#36200B"/>
<path d="M43.9276 268.446L57.1058 266.982L56.6177 259.661L43.4395 260.637L43.9276 268.446Z" fill="#858585"/>
<path d="M32.7141 285.041L45.3918 283.577L45.1399 279.672L43.9276 268.446L31.3563 269.91L32.7141 285.041Z" fill="#858585"/>
<path d="M45.3918 283.577L46.368 291.386L72.2364 288.458L71.2602 280.648L58.5701 282.085L45.3918 283.577Z" fill="#858585"/>
<path d="M71.2602 280.648L84.4385 279.184L83.4623 271.863L70.7722 272.839L71.2602 280.648Z" fill="#858585"/>
<path d="M33.6778 295.779L46.368 294.315V291.386L45.3918 283.577L32.7141 285.041L33.6778 295.779Z" fill="#565656"/>
<path d="M46.368 294.315L47.3441 301.636L73.2126 298.707L72.7245 291.63L72.2364 288.458L46.368 291.386V294.315Z" fill="#565656"/>
<path d="M72.7245 291.63L85.4147 289.922L85.1706 287.237L84.4385 279.184L71.2602 280.648L72.2364 288.458L72.7245 291.63Z" fill="#565656"/>
<path d="M43.9276 268.446L45.1399 279.672L58.082 277.72L57.8379 275.035L57.1058 266.982L43.9276 268.446Z" fill="#565656"/>
<path d="M187.912 267.47H185.472L174.734 268.934L176.442 284.309L189.361 282.601L188.888 277.72L187.912 267.47Z" fill="#36200B"/>
<path d="M163.02 285.529L164.018 292.85L176.93 291.142L176.442 284.309L163.02 285.529Z" fill="#36200B"/>
<path d="M110.551 284.309L111.444 291.63L163.02 285.529L162.044 278.94L110.551 284.309Z" fill="#36200B"/>
<path d="M84.4385 279.184L85.1706 287.237L110.551 284.309L109.331 276.255L84.4385 279.184Z" fill="#36200B"/>
<path d="M70.7722 272.839L83.4623 271.863L81.9981 257.464L69.552 258.44L70.7722 272.839Z" fill="#36200B"/>
<path d="M56.6177 259.661L57.1058 266.982L57.8379 275.035L70.7722 272.839L69.552 258.44L56.6177 259.661Z" fill="#36200B"/>
<path d="M43.4395 260.637L56.6177 259.661L55.1535 245.018L42.2193 246.238L43.4395 260.637Z" fill="#36200B"/>
<path d="M30.2612 257.708L30.6554 262.101L43.4395 260.637L42.2193 246.238L29.285 247.459L30.2612 257.708Z" fill="#36200B"/>
<path d="M14.6425 228.911L16.6027 249.167L29.285 247.459L25.8684 217.197L13.4223 218.662L14.6425 228.911Z" fill="#36200B"/>
<path d="M12.6902 210.852L0 212.316L0.870636 220.37L13.4223 218.662L12.6902 210.852Z" fill="#36200B"/>
<path d="M39.0467 207.924L38.0705 200.602L12.2021 203.043L12.6902 210.852L39.0467 207.924Z" fill="#36200B"/>
<path d="M218.174 210.364V187.912L215.733 190.841L218.174 210.364Z" fill="#220F13"/>
<path fill-rule="evenodd" clip-rule="evenodd" d="M218.174 210.364L219.961 211.113L204.263 213.831L201.477 207.924L208.412 199.626L215.733 190.841L218.174 210.364Z" fill="#090808"/>
<path d="M201.477 207.924L195.234 215.395L204.263 213.831L201.477 207.924Z" fill="#160B0E"/>
<path fill-rule="evenodd" clip-rule="evenodd" d="M174.734 268.934L176.442 284.309L163.02 285.529L162.044 278.94L110.551 284.309L109.331 276.255L84.4385 279.184L83.4623 271.863L81.9981 257.464L69.552 258.44L56.6177 259.661L55.1535 245.018L67.8437 243.066L67.3556 235.256L80.0458 233.792L93.224 232.328L93.7121 239.649L106.89 238.185L107.378 245.994L120.557 244.53L121.045 251.851L122.509 262.589V267.47L135.455 266.006L135.687 268.446L136.419 273.327L148.866 271.863L162.044 270.457L174.734 268.934ZM55.1535 245.018L42.2193 246.238L29.285 247.459L25.8684 217.197L13.4223 218.662L12.6902 210.852L39.0467 207.924L39.5348 215.245L40.511 223.054L53.2011 221.59L54.1773 231.84L55.1535 245.018Z" fill="#6D4218"/>
</svg>
