<svg width="434" height="128" viewBox="0 0 434 128" fill="none" xmlns="http://www.w3.org/2000/svg">
<path fill-rule="evenodd" clip-rule="evenodd" d="M156.574 122.653H131.007L126.83 85.5561L129.503 62.8303H156.741L155.655 74.1932L156.574 122.653ZM161.007 74.3975L162.624 57.483H48.8735L46.0328 56.4804H30.5128L22.5527 85.4631L32.7079 128H162.023L161.007 74.3975ZM126.83 122.653H100.762L95.2474 85.5561L98.5894 62.8303H109.785L106.945 85.5561L110.788 115.467H114.798L111.289 85.5561L113.963 62.8303H124.992L122.652 85.5561L126.83 122.653ZM94.579 62.8303H66.8401L63.9994 85.5561L70.8505 122.653H97.2526L95.7487 115.467H80.7095L79.3727 108.449H90.7357L89.3988 100.762H78.0359L76.8662 93.2428H92.4067L91.237 85.5561L94.579 62.8303ZM66.8401 122.653H55.8114L54.1404 115.467H50.4641L48.7931 108.449H45.1169L48.2918 122.653H36.9289L28.0725 85.5561L34.5894 61.8276H45.1169L47.9576 62.8303L41.4406 93.2428H45.1169L46.955 100.762H51.1325L47.6234 85.5561L52.1351 62.8303H62.6625L59.8218 85.5561L66.8401 122.653ZM191.999 118.976V122.653H170.109L168.271 85.5561L170.61 62.8303H197.012L195.676 89.5666V118.976H191.999ZM211.049 122.653V85.5561L211.717 62.8303H200.689L199.686 85.5561V122.653H211.049ZM336.387 57.483L353.249 39.3717L353.133 39.0808L353.74 38.8452L358.614 33.6102L359.762 36.506L382.536 27.6597L389.898 39.5906L410.54 85.0721L407.013 98.5901H406.739L398.595 128H334.222L332.278 120.35L330.713 128H312.365L310.046 120.405L308.882 128H239.108L239.551 120.982H238.539L238.205 128H217.399V120.982H216.396V128H165.02L162.91 85.4138L165.785 57.483H336.387ZM218.736 115.634H222.746V122.653H233.106L233.441 115.634H237.451L237.785 107.948H241.461L242.798 85.5561L242.13 62.8303H231.435V85.5561L230.767 101.264H226.422L227.091 85.5561V62.8303H215.728V85.5561L215.059 107.948H219.07L218.736 115.634ZM244.804 122.653H255.832L258.84 85.5561L256.668 62.8303H246.14L247.143 85.5561L244.804 122.653ZM259.843 122.653H270.871L272.208 107.948H276.219L275.55 115.634H279.561L278.558 122.653H289.587L294.266 85.5561L290.088 62.8303H280.062L282.569 85.5561L281.232 101.264H276.887L277.555 93.2428H273.545L274.548 85.5561L272.208 62.8303H260.511L262.851 85.5561L259.843 122.653ZM298.497 86.3916L293.597 122.653H298.993L298.61 122.318L295.101 122.653M313.315 93.2428L314.318 85.5561L309.472 62.8303H310.426H314.939L314.702 61.7151L310.393 62.6339M316.323 122.653H319.03ZM319.03 122.653H326.349L329.141 109.006L331.715 96.4177L333.439 103.203L338.381 122.653H349.409L352.417 107.948H356.762L353.42 122.653H364.448L373.472 85.5561L356.762 43.4464L338.715 62.8303L346.067 85.5561L345.894 86.3916M341.354 95.1237L344.163 94.7467L345.744 87.1163M341.114 83.718L334.203 62.8303H333.095M339.014 93.2428H332.365L331.715 96.4177L339.212 95.4114L341.354 95.1237M339.014 93.2428H340.386L341.723 85.5561L341.114 83.718M367.852 61.479L367.852 61.4805L377.482 85.5561L372.135 108.282H387.174L385.503 115.634H370.13L368.459 122.653H394.527L400.542 100.929H385.169L386.84 93.2428H402.882L404.887 85.5561L385.169 42.1096L380.323 34.2558L360.104 42.1096L360.108 42.1196L367.852 61.479ZM309.383 82.8825L304.96 62.8303H304.004M299.71 62.8303L299.518 61.8262L295.482 62.5977M299.71 62.8303H295.525ZM295.525 62.8303H294.266L297.968 82.1985L298.61 85.5561L298.497 86.3916M309.436 89.0652L308.31 96.4177L306.443 108.61M309.436 89.0652L309.973 85.5561L309.845 84.976L309.845 84.9726L309.383 82.8825M180.636 115.634H184.647L184.313 93.2428H179.968L180.636 115.634ZM355.759 92.9086H360.104L358.433 101.264H354.088L355.759 92.9086Z" fill="black"/>
<path fill-rule="evenodd" clip-rule="evenodd" d="M353.133 39.0808L353.249 39.3717L336.387 57.483H165.785L162.91 85.4138L165.02 128H216.396V120.982H217.399V128H238.205L238.539 120.982H239.551L239.108 128H308.882L310.046 120.405L312.365 128H330.713L332.278 120.35L334.222 128H398.595L406.739 98.5901H407.013L410.54 85.0721L389.898 39.5906L382.536 27.6597L359.762 36.506L358.614 33.6102L353.74 38.8452L353.133 39.0808ZM191.999 122.653V118.976H195.676V89.5666L197.012 62.8303H170.61L168.271 85.5561L170.109 122.653H191.999ZM222.746 115.634H218.736L219.07 107.948H215.059L215.728 85.5561V62.8303H227.091V85.5561L226.422 101.264H230.767L231.435 85.5561V62.8303H242.13L242.798 85.5561L241.461 107.948H237.785L237.451 115.634H233.441L233.106 122.653H222.746V115.634ZM276.219 107.948H272.208L270.871 122.653H259.843L262.851 85.5561L260.511 62.8303H272.208L274.548 85.5561L273.545 93.2428H277.555L276.887 101.264H281.232L282.569 85.5561L280.062 62.8303H290.088L294.266 85.5561L289.587 122.653H278.558L279.561 115.634H275.55L276.219 107.948ZM298.61 122.318L298.993 122.653H295.101H293.597L298.497 86.3916L297.968 82.1985L294.266 62.8303H295.525H299.71L295.482 62.5977L299.518 61.8262L299.71 62.8303H295.525L297.968 82.1985L298.61 85.5561L298.497 86.3916L295.101 122.653L298.61 122.318ZM313.315 93.2428L308.31 96.4177L309.436 89.0652L309.383 82.8825L304.004 62.8303H304.96L309.383 82.8825L309.845 84.9726L309.845 84.976L309.973 85.5561L309.436 89.0652L308.31 96.4177L313.315 93.2428L314.318 85.5561L309.472 62.8303H310.426L310.393 62.6339L314.702 61.7151L314.939 62.8303H310.426L314.318 85.5561L313.315 93.2428ZM326.349 122.653H319.03L329.141 109.006L331.715 96.4177L332.365 93.2428H339.014L341.114 83.718L333.095 62.8303H334.203L341.114 83.718L341.723 85.5561L340.386 93.2428H339.014L340.145 94.1519L345.894 86.3916L346.067 85.5561L338.715 62.8303L356.762 43.4464L373.472 85.5561L364.448 122.653H353.42L356.762 107.948H352.417L349.409 122.653H338.381L333.439 103.203L329.141 109.006L326.349 122.653ZM367.852 61.479L367.852 61.4805L377.482 85.5561L372.135 108.282H387.174L385.503 115.634H370.13L368.459 122.653H394.527L400.542 100.929H385.169L386.84 93.2428H402.882L404.887 85.5561L385.169 42.1096L380.323 34.2558L360.104 42.1096L360.108 42.1196L367.852 61.479ZM199.686 122.653H211.049V85.5561L211.717 62.8303H200.689L199.686 85.5561V122.653ZM244.804 122.653L247.143 85.5561L246.14 62.8303H256.668L258.84 85.5561L255.832 122.653H244.804Z" fill="black"/>
<path d="M331.715 96.4177L329.141 109.006L333.439 103.203L331.715 96.4177Z" fill="black"/>
<path d="M339.014 93.2428H332.365L331.715 96.4177L339.212 95.4114L340.145 94.1519L339.014 93.2428Z" fill="black"/>
<path fill-rule="evenodd" clip-rule="evenodd" d="M352.417 107.948H356.762L353.42 122.653H364.448L373.472 85.5561L356.762 43.4464L338.715 62.8303L346.067 85.5561L345.894 86.3916L340.145 94.1519L341.354 95.1237L345.744 87.1163L344.163 94.7467L341.354 95.1237L339.212 95.4114L333.439 103.203L338.381 122.653H349.409L352.417 107.948ZM355.759 92.9086H360.104L358.433 101.264H354.088L355.759 92.9086Z" fill="black"/>
<path d="M39.6023 85.5561L39.8021 86.3916L41.4404 93.2428L47.9574 62.8303L45.1167 61.8277L39.6023 85.5561Z" fill="black"/>
<path fill-rule="evenodd" clip-rule="evenodd" d="M28.0723 85.5561H39.6023L45.1167 61.8277H34.5892L28.0723 85.5561ZM47.6232 85.5561H59.8216L62.6623 62.8303H54.1401H52.1349L47.6232 85.5561Z" fill="#7D188D"/>
<path d="M95.2472 85.5561H106.944L109.785 62.8303H98.5892L95.2472 85.5561Z" fill="#7D188D"/>
<path d="M111.289 85.5561H122.652L124.991 62.8303H113.963L111.289 85.5561Z" fill="#7D188D"/>
<path d="M126.829 85.5561H154.568L155.655 74.1932L156.741 62.8303H129.503L126.829 85.5561Z" fill="#7D188D"/>
<path d="M168.271 85.5561H191.331L191.999 62.8303H170.61L168.271 85.5561Z" fill="#7D188D"/>
<path d="M191.331 85.5561V86.3916V89.5666H195.675L197.012 62.8303H191.999L191.331 85.5561Z" fill="black"/>
<path d="M199.686 85.5561H211.049L211.717 62.8303H200.688L199.686 85.5561Z" fill="#7D188D"/>
<path d="M215.728 85.5561H227.091V62.8303H215.728V85.5561Z" fill="#7D188D"/>
<path d="M231.435 85.5561H242.798L242.13 62.8303H231.435V85.5561Z" fill="#7D188D"/>
<path d="M247.143 85.5561H258.84L256.668 62.8303H246.14L247.143 85.5561Z" fill="#7D188D"/>
<path d="M154.568 85.5561L154.623 86.3916L155.07 93.2428H139.195L139.863 100.762H152.897L153.232 108.449H140.699L141.367 115.467H155.905L156.574 122.653L155.655 74.1932L154.568 85.5561Z" fill="black"/>
<path d="M262.85 85.5561H274.547L272.208 62.8303H260.511L262.85 85.5561Z" fill="#7D188D"/>
<path d="M282.568 85.5561H294.265L290.088 62.8303H280.062L282.568 85.5561Z" fill="#7D188D"/>
<path d="M298.61 85.5561H309.973L304.96 62.8303H294.265L298.61 85.5561Z" fill="#7D188D"/>
<path d="M314.318 85.5561H341.722L334.203 62.8303H309.472L314.318 85.5561Z" fill="#7D188D"/>
<path d="M346.067 85.5561H373.472L364.448 62.8303L356.762 43.4465L338.715 62.8303L346.067 85.5561Z" fill="#7D188D"/>
<path d="M377.482 85.5561H404.887L385.169 42.1096L380.323 34.2559L360.104 42.1096L377.482 85.5561Z" fill="#7D188D"/>
<path d="M321.002 93.2428H313.315L308.31 96.4177L316.323 122.653L321.002 93.2428Z" fill="black"/>
<path d="M331.715 96.4177L338.38 122.653L344.163 94.7467L331.715 96.4177Z" fill="black"/>
<path d="M63.9992 85.5561H73.0572H74.1924H91.2368L94.5788 62.8303H76.866H66.8399L63.9992 85.5561Z" fill="#7D188D"/>
<path d="M39.6023 85.5561H28.0723L28.2717 86.3916H39.8021L39.6023 85.5561Z" fill="#D683E3"/>
<path fill-rule="evenodd" clip-rule="evenodd" d="M28.2717 86.3916H39.8021L41.4404 93.2428H45.1167L46.9548 100.762H51.1323L48.838 90.8205L47.816 86.3916H59.9797L66.8399 122.653H55.8112L54.1401 115.467H50.4639L48.7929 108.449H45.1167L48.2916 122.653H36.9287L28.2717 86.3916Z" fill="#C947DE"/>
<path d="M59.8216 85.5561H47.6232L47.816 86.3916H59.9797L59.8216 85.5561Z" fill="#D683E3"/>
<path fill-rule="evenodd" clip-rule="evenodd" d="M91.3639 86.3916L92.4065 93.2428H76.866L78.0357 100.762H89.3986L90.7354 108.449H79.3725L80.7093 115.467H95.7485L97.2524 122.653H70.8503L68.7478 111.269L64.1535 86.3916H91.3639Z" fill="#C947DE"/>
<path d="M73.0572 85.5561H63.9992L64.1535 86.3916H91.3639L91.2368 85.5561H74.1924H73.0572Z" fill="#D683E3"/>
<path d="M106.944 85.5561H95.2472L95.3714 86.3916H107.052L106.944 85.5561Z" fill="#D683E3"/>
<path fill-rule="evenodd" clip-rule="evenodd" d="M107.052 86.3916L110.788 115.467H114.798L111.387 86.3916H122.746L126.829 122.653H100.762L95.3714 86.3916H107.052Z" fill="#C947DE"/>
<path d="M122.652 85.5561H111.289L111.387 86.3916H122.746L122.652 85.5561Z" fill="#D683E3"/>
<path fill-rule="evenodd" clip-rule="evenodd" d="M155.07 93.2428L154.623 86.3916H126.924L131.007 122.653H156.574L155.905 115.467H141.367L140.699 108.449H153.232L152.897 100.762H139.863L139.195 93.2428H155.07Z" fill="#C947DE"/>
<path d="M154.568 85.5561H126.829L126.924 86.3916H154.623L154.568 85.5561Z" fill="#D683E3"/>
<path fill-rule="evenodd" clip-rule="evenodd" d="M191.331 89.5666V86.3916H168.312L170.109 122.653H191.999V118.976H195.675V89.5666H191.331ZM179.968 93.2428H184.312L184.647 115.634H180.636L179.968 93.2428Z" fill="#C947DE"/>
<path d="M191.331 85.5561H168.271L168.312 86.3916H191.331V85.5561Z" fill="#D683E3"/>
<path fill-rule="evenodd" clip-rule="evenodd" d="M211.049 122.653V86.3916H199.686V122.653H211.049Z" fill="#C947DE"/>
<path d="M211.049 85.5561H199.686V86.3916H211.049V85.5561Z" fill="#D683E3"/>
<path d="M227.091 85.5561H215.728L215.703 86.3916H227.055L227.091 85.5561Z" fill="#D683E3"/>
<path fill-rule="evenodd" clip-rule="evenodd" d="M215.703 86.3916H227.055L226.422 101.264H230.767L231.4 86.3916H242.748L241.461 107.948H237.785L237.451 115.634H233.44L233.106 122.653H222.746V115.634H218.735L219.07 107.948H215.059L215.703 86.3916Z" fill="#C947DE"/>
<path d="M242.798 85.5561H231.435L231.4 86.3916H242.748L242.798 85.5561Z" fill="#D683E3"/>
<path fill-rule="evenodd" clip-rule="evenodd" d="M258.772 86.3916H247.09L244.803 122.653H255.832L258.772 86.3916Z" fill="#C947DE"/>
<path d="M258.84 85.5561H247.143L247.09 86.3916H258.772L258.84 85.5561Z" fill="#D683E3"/>
<path d="M274.547 85.5561H262.85L262.783 86.3916H274.438L274.547 85.5561Z" fill="#D683E3"/>
<path fill-rule="evenodd" clip-rule="evenodd" d="M262.783 86.3916H274.438L273.545 93.2428H277.555L276.887 101.264H281.232L282.497 86.3916H294.16L289.587 122.653H278.558L279.56 115.634H275.55L276.218 107.948H272.208L270.871 122.653H259.842L262.783 86.3916Z" fill="#C947DE"/>
<path d="M294.265 85.5561H282.568L282.497 86.3916H294.16L294.265 85.5561Z" fill="#D683E3"/>
<path fill-rule="evenodd" clip-rule="evenodd" d="M309.845 86.3916H298.497L293.597 122.653H304.292L308.31 96.4177L309.845 86.3916Z" fill="#C947DE"/>
<path d="M309.973 85.5561H298.61L298.497 86.3916H309.845L309.973 85.5561Z" fill="#D683E3"/>
<path fill-rule="evenodd" clip-rule="evenodd" d="M341.577 86.3916H314.209L313.315 93.2428H321.002L316.323 122.653H326.349L331.715 96.4177L332.365 93.2428H340.386L341.577 86.3916Z" fill="#C947DE"/>
<path d="M341.722 85.5561H314.318L314.209 86.3916H341.577L341.722 85.5561Z" fill="#D683E3"/>
<path fill-rule="evenodd" clip-rule="evenodd" d="M364.448 122.653L373.268 86.3916H345.894L344.163 94.7467L338.38 122.653H349.409L352.417 107.948H356.762L353.42 122.653H364.448ZM355.759 92.9086H360.104L358.433 101.264H354.088L355.759 92.9086Z" fill="#C947DE"/>
<path d="M373.472 85.5561H346.067L345.894 86.3916H373.268L373.472 85.5561Z" fill="#D683E3"/>
<path fill-rule="evenodd" clip-rule="evenodd" d="M404.669 86.3916H377.286L372.135 108.282H387.174L385.503 115.634H370.13L368.459 122.653H394.527L400.542 100.929H385.169L386.84 93.2428H402.882L404.669 86.3916Z" fill="#C947DE"/>
<path d="M404.887 85.5561H377.482L377.286 86.3916H404.669L404.887 85.5561Z" fill="#D683E3"/>
<g clip-path="url(#clip0_1921_2360)">
<path d="M424.606 26.8366L432.393 13.9029L428.081 0H130.507L129.103 10.1598L126.362 0H57.0151L54.6423 9.55822H48.8606L47.4903 14.8386L39.8371 0H17.2115L0 55.2773L13.7358 74.093H36.2945L39.0684 63.6658H48.1922L54.3081 74.093H123.99L125.661 61.9948L129.504 74.093H362.277L371.701 54.5755H380.223L388.144 39.0684L396.599 74.093H420.027L432.994 55.2439L424.606 26.8366ZM223.515 39.9708L223.549 33.3535H243.568L243.768 39.9708H223.515Z" fill="black"/>
<path d="M90.368 54.5757H71.9199L79.8071 70.2833H97.286L90.368 54.5757Z" fill="#3D3938"/>
<path d="M96.5176 54.5757L103.135 70.2833H120.614L114.999 54.5757H96.5176Z" fill="#3D3938"/>
<path d="M151.896 54.5757L155.606 70.2833H196.412L194.975 54.5757H151.896Z" fill="#3D3938"/>
<path d="M244.202 54.5757L243.066 70.2833H202.259L201.123 54.5757H244.202Z" fill="#3D3938"/>
<path d="M250.351 54.5757H268.799L266.393 70.2833H248.881L250.351 54.5757Z" fill="#3D3938"/>
<path d="M274.949 54.5757L272.209 70.2833H289.688L293.397 54.5757H274.949Z" fill="#3D3938"/>
<path d="M299.548 54.5757L295.537 70.2833H313.016L318.029 54.5757H299.548Z" fill="#3D3938"/>
<path d="M324.177 54.5757L318.863 70.2833H336.342L342.625 54.5757H324.177Z" fill="#3D3938"/>
<path d="M348.775 54.5757L342.158 70.2833H359.67L367.223 54.5757H348.775Z" fill="#3D3938"/>
<path d="M410.302 54.5757L400.477 70.2833H417.955L428.75 54.5757H410.302Z" fill="#3D3938"/>
<path d="M127.299 54.5757L132.278 70.2833H149.791L145.747 54.5757H127.299Z" fill="#3D3938"/>
<path d="M47.3223 54.5757H65.7703L73.9917 70.2833H56.4794L47.3223 54.5757Z" fill="#3D3938"/>
<path d="M15.6739 70.2833L4.24414 54.5757H22.6922L33.1528 70.2833H15.6739Z" fill="#3D3938"/>
<path d="M52.703 33.3534H46.7208L44.0137 43.7806H31.9155L34.7897 33.3534H28.8409L22.7918 54.5754H4.34375L20.1516 3.84326H37.2628L34.5558 13.4015H40.3375L37.6304 23.2271H49.361L51.9009 13.4015H57.6826L60.0555 3.84326H77.1667L65.8038 54.5754H47.3558L52.703 33.3534ZM82.915 3.84326H100.026L90.4346 54.5754H71.9866L82.915 3.84326ZM157.075 3.84326H197.012L196.645 13.4015H173.484L172.749 23.2271H196.243L195.842 33.3534H171.98L171.212 43.7806H195.441L195.007 54.5754H151.961L157.075 3.84326ZM202.76 3.84326H242.698L242.999 13.4015H219.838L219.705 43.814H243.934L244.269 54.6088H201.19L202.76 3.84326ZM273.445 33.3534H267.462L268.866 54.5754H250.418L248.413 3.84326H288.35L290.288 23.2271H284.406L284.874 28.2401H290.823L293.497 54.5754H275.049L273.445 33.3534ZM266.159 13.4015L266.794 23.2271H272.676L271.941 13.4015H266.159ZM339.717 3.84326H379.654L381.96 13.4015H358.8L360.839 23.2271H384.333L386.773 33.3534H362.911L367.289 54.5754H348.841L339.717 3.84326ZM399.372 13.4015H387.776L385.369 3.84326H425.307L428.281 13.4015H416.684L428.782 54.6088H410.334L399.372 13.4015ZM129.536 38.5336H123.521L125.025 28.2401H119.109L115.065 54.5754H96.6174L105.741 3.84326H122.852L121.382 13.4015H127.164L125.727 23.2271H131.608L134.249 3.84326H151.36L145.812 54.5754H127.364L129.536 38.5336ZM334.002 3.84326H294.065L299.646 54.5754H318.094L315.922 38.5336H321.937L324.277 54.5754H342.725L334.002 3.84326ZM320.534 22.3916H323.475L324.878 31.649H320.901L320.4 28.2735H314.485L314.953 31.649H310.976L309.806 22.3916H312.747L312.413 19.9185H305.595L304.793 13.4015H312.513L313.282 19.1164H319.13L318.295 13.4015H326.015L327.051 19.9185H320.233L320.534 22.3916Z" fill="url(#paint0_linear_1921_2360)"/>
<path d="M82.3147 43.814L80.1424 54.5753H78.0703L80.3095 43.814H82.3147Z" fill="#998F8B"/>
<path d="M311.177 49.1279L311.879 54.5755H309.807L309.139 49.1279H311.177Z" fill="#998F8B"/>
<path d="M80.1424 54.5757L82.4484 59.4551H80.4432L78.0703 54.5757H80.1424Z" fill="#262423"/>
<path d="M105.642 49.1279L104.74 54.5755H102.668L103.604 49.1279H105.642Z" fill="#998F8B"/>
<path d="M139.597 54.5757L140.967 59.4551H138.929L137.559 54.5757H139.597Z" fill="#262423"/>
<path d="M160.117 54.5757L162.122 64.2007H160.117L158.045 54.5757H160.117Z" fill="#262423"/>
<path d="M29.1101 64.2006L28.074 62.6299H22.0918L23.1613 64.2006H29.1101Z" fill="#262423"/>
<path d="M351.381 62.6299H345.399L344.73 64.2006H350.679L351.381 62.6299Z" fill="#262423"/>
<path d="M279.527 62.6299H273.545L273.277 64.2006H279.226L279.527 62.6299Z" fill="#262423"/>
<path d="M181.305 59.4551H183.311L182.676 54.5757H180.604L181.305 59.4551Z" fill="#262423"/>
<path d="M404.285 64.2006L405.254 62.6299H411.237L410.234 64.2006H404.285Z" fill="#262423"/>
<path d="M70.8178 64.2006L69.9822 62.6299H64L64.8355 64.2006H70.8178Z" fill="#262423"/>
<path d="M302.788 29.9447L302.587 28.2402H296.672L296.839 29.9447H302.788Z" fill="#998F8B"/>
<path d="M63.3983 21.5563L65.7043 11.7642H58.0176L57.6166 13.4018H63.3983L61.4265 21.5563H49.696L49.2949 23.2273H72.7894L73.1571 21.5563H63.3983Z" fill="#998F8B"/>
<path d="M415.749 3.84326H413.844L416.651 13.4015H418.589L415.749 3.84326Z" fill="#998F8B"/>
<path d="M372.536 23.2271H370.564L372.804 33.3534H374.775L372.536 23.2271Z" fill="#998F8B"/>
<path d="M268.098 43.8142L267.964 42.043H259.91L260.579 54.5756H262.651L262.016 43.8142H268.098Z" fill="#998F8B"/>
<path d="M17.5794 11.7642H34.9246L34.4567 13.4018H17.0781L17.5794 11.7642Z" fill="#998F8B"/>
<path d="M99.0918 40.2715L99.426 38.5337H117.44L117.172 40.2715H99.0918Z" fill="#998F8B"/>
<path d="M406.458 40.2715L405.99 38.5337H424.037L424.539 40.2715H406.458Z" fill="#998F8B"/>
<path d="M322.875 45.5852L322.607 43.814H340.788L341.089 45.5852H322.875Z" fill="#998F8B"/>
<path d="M141.502 38.5337H129.47L129.236 40.2715H139.296L137.558 54.5755H139.597L141.502 38.5337Z" fill="#998F8B"/>
<path d="M260.846 23.2271L260.745 21.5561H256.835L255.933 3.84326H254.028L254.663 16.6433H248.848L248.915 18.2809H254.73L254.964 23.2271H260.846Z" fill="#998F8B"/>
<path d="M260.846 23.2271L260.745 21.5561H256.835L255.933 3.84326H254.028L254.663 16.6433H248.848L248.915 18.2809H254.73L254.964 23.2271H260.846Z" fill="#998F8B"/>
<path d="M25.7664 43.8141L26.2677 42.0428H16.2082L18.8149 33.3535H10.8609L10.3262 35.0914H16.3084L12.0306 49.1279H14.0693H24.2625L24.7638 47.3566H14.604L15.6734 43.8141H25.7664Z" fill="#998F8B"/>
<path d="M370.33 13.4015L368.893 6.98478H359.335L358.667 3.84326H356.762L357.731 8.58895H367.323L368.392 13.4015H370.33Z" fill="#998F8B"/>
<path d="M155.739 16.6436H161.555L161.387 18.2812H155.572L155.739 16.6436Z" fill="#998F8B"/>
<path d="M153.165 42.043L152.998 43.8142H159.047L158.045 54.5756H160.117L161.219 42.043H153.165Z" fill="#998F8B"/>
<path d="M121.551 11.7642H115.803L115.535 13.4018H121.317L121.551 11.7642Z" fill="#998F8B"/>
<path d="M150.458 11.7642H133.113L132.879 13.4018H150.257L150.458 11.7642Z" fill="#998F8B"/>
<path d="M311.879 54.5757H309.807L307 64.2007H309.005L311.879 54.5757Z" fill="#262423"/>
<path d="M274.014 42.043L274.147 43.8143H280.196L280.063 42.043H274.014Z" fill="#998F8B"/>
<path d="M202.227 18.2808L202.194 19.9184H208.042L207.608 38.5335H201.625L201.559 40.2714H209.613L209.981 19.9184H219.739V18.2808H202.227Z" fill="#998F8B"/>
<path d="M354.924 43.8141L352.919 33.3535H344.965L345.266 35.0914H351.248L352.885 43.8141H354.924Z" fill="#998F8B"/>
<path d="M221.644 54.5754H219.572L219.606 50.0303H221.644V54.5754Z" fill="#998F8B"/>
<path d="M221.644 59.4551H219.639L219.572 54.5757H221.644V59.4551Z" fill="#262423"/>
<path d="M261.982 59.4551H259.977L260.578 54.5757H262.65L261.982 59.4551Z" fill="#262423"/>
<path d="M90.737 11.7642L89.4336 18.2811H91.4054L92.3746 13.4018H98.1563L98.4571 11.7642H90.737Z" fill="#998F8B"/>
<path d="M187.321 43.814L187.12 47.3565H181.038L180.604 54.5753H182.676L182.976 49.1278H189.092L189.326 43.814H187.321Z" fill="#998F8B"/>
<path d="M243.568 63.432L243.602 62.6299H237.619L237.586 63.432H243.568Z" fill="#262423"/>
<path d="M104.74 54.5757L108.517 64.2007H106.545L102.668 54.5757H104.74Z" fill="#262423"/>
<path d="M18.8152 33.3535L18.5478 34.2224H10.5938L10.8611 33.3535H18.8152Z" fill="#6B6562"/>
<path d="M16.209 42.043L16.9442 42.9119H26.0346L26.2685 42.043H16.209Z" fill="#6B6562"/>
<path d="M14.6055 47.3564L15.3741 48.2588H24.4979L24.7653 47.3564H14.6055Z" fill="#6B6562"/>
<path d="M17.5796 11.7642H34.9248L34.6909 12.5997H17.3457L17.5796 11.7642Z" fill="#6B6562"/>
<path d="M58.0169 11.7642L57.8164 12.5997H65.5365L65.7036 11.7642H58.0169Z" fill="#6B6562"/>
<path d="M63.399 13.4014L64.1676 14.2035L62.1958 22.3914H49.4961L49.6966 21.5559H61.4272L63.399 13.4014Z" fill="#6B6562"/>
<path d="M63.3984 21.5562L64.1671 22.3917H72.9901L73.1572 21.5562H63.3984Z" fill="#6B6562"/>
<path d="M16.3091 35.0913L17.0443 35.9268L13.0673 49.1279H12.0312L16.3091 35.0913Z" fill="#6B6562"/>
<path d="M89.4336 18.2811H90.4362L91.5725 12.5997H98.29L98.4571 11.7642H90.737L89.4336 18.2811Z" fill="#6B6562"/>
<path d="M82.3147 43.814L82.1476 44.6829H81.145L79.1063 54.5753H78.0703L80.3095 43.814H82.3147Z" fill="#6B6562"/>
<path d="M115.535 13.4018H116.471L116.605 12.5997H121.451L121.551 11.7642H115.803L115.535 13.4018Z" fill="#6B6562"/>
<path d="M133.114 11.7642H150.459L150.359 12.5997H133.014L133.114 11.7642Z" fill="#6B6562"/>
<path d="M99.4249 38.5337H117.438L117.305 39.4026H99.2578L99.4249 38.5337Z" fill="#6B6562"/>
<path d="M105.642 49.1279H103.604L102.668 54.5755H103.704L104.473 50.0303H105.509L105.642 49.1279Z" fill="#6B6562"/>
<path d="M129.471 38.5337L129.371 39.4026H141.402L141.503 38.5337H129.471Z" fill="#6B6562"/>
<path d="M139.296 40.2715L140.199 41.1738L138.561 54.5754H137.559L139.296 40.2715Z" fill="#6B6562"/>
<path d="M155.739 16.6436L155.639 17.4456H161.487L161.554 16.6436H155.739Z" fill="#6B6562"/>
<path d="M153.165 42.043L153.064 42.9119H161.152L161.219 42.043H153.165Z" fill="#6B6562"/>
<path d="M159.048 43.814L159.983 44.6829L159.081 54.5753H158.045L159.048 43.814Z" fill="#6B6562"/>
<path d="M188.324 43.814H187.321L187.12 47.3565H181.038L180.604 54.5753H181.64L182.007 48.2589H188.09L188.324 43.814Z" fill="#6B6562"/>
<path d="M202.193 19.0828H219.739V18.2808H202.227L202.193 19.0828Z" fill="#6B6562"/>
<path d="M208.042 19.9185L208.978 20.754L208.61 39.4025H201.592L201.625 38.5336H207.607L208.042 19.9185Z" fill="#6B6562"/>
<path d="M254.663 16.6436H248.848L248.881 17.4456H253.727L254.663 16.6436Z" fill="#6B6562"/>
<path d="M260.847 23.2271L260.746 21.5561H256.836L255.934 3.84326H254.998L255.934 22.3916H259.844L259.877 23.2271H260.847Z" fill="#6B6562"/>
<path d="M268.031 42.9119L267.964 42.043H259.91L259.944 42.9119H268.031Z" fill="#6B6562"/>
<path d="M262.016 43.814L261.08 44.6829L261.615 54.5753H262.651L262.016 43.814Z" fill="#6B6562"/>
<path d="M274.014 42.043L274.08 42.9119H279.127L279.194 43.8143H280.196L280.063 42.043H274.014Z" fill="#6B6562"/>
<path d="M296.772 29.1092L296.672 28.2402H302.587L302.788 29.9447H301.785L301.718 29.1092H296.772Z" fill="#6B6562"/>
<path d="M322.607 43.814H340.788L340.922 44.6829H322.741L322.607 43.814Z" fill="#6B6562"/>
<path d="M309.239 50.0303H310.275L310.843 54.5755H311.879L311.177 49.1279H309.139L309.239 50.0303Z" fill="#6B6562"/>
<path d="M345.099 34.2224H352.083L353.888 43.8141H354.924L352.919 33.3535H344.965L345.099 34.2224Z" fill="#6B6562"/>
<path d="M358.668 3.84326H357.732L358.535 7.78687H368.093L369.363 13.4015H370.332L368.895 6.98478H359.337L358.668 3.84326Z" fill="#6B6562"/>
<path d="M372.538 23.2271H371.535L373.808 33.3534H374.777L372.538 23.2271Z" fill="#6B6562"/>
<path d="M405.99 38.5337H424.037L424.305 39.4026H406.224L405.99 38.5337Z" fill="#6B6562"/>
<path d="M414.779 3.84326L417.62 13.4015H418.589L415.748 3.84326H414.779Z" fill="#6B6562"/>
<path d="M219.605 49.1279V50.0303H221.644V49.1279H219.605Z" fill="#6B6562"/>
<path d="M64.8355 64.2006L64 62.6299H65.0026L65.4371 63.432H70.3833L70.8178 64.2006H64.8355Z" fill="#171615"/>
<path d="M79.1063 54.5757H78.0703L80.4432 59.4551H82.4484L82.0808 58.653H81.0447L79.1063 54.5757Z" fill="#171615"/>
<path d="M138.561 54.5757L139.731 58.653H140.734L140.967 59.4551H138.929L137.559 54.5757H138.561Z" fill="#171615"/>
<path d="M159.081 54.5757L160.952 63.4321H161.955L162.122 64.2007H160.117L158.045 54.5757H159.081Z" fill="#171615"/>
<path d="M181.64 54.5757L182.208 58.653H183.21L183.311 59.4551H181.305L180.604 54.5757H181.64Z" fill="#171615"/>
<path d="M310.843 54.5757L308.237 63.4321H307.234L307 64.2007H309.005L311.879 54.5757H310.843Z" fill="#171615"/>
<path d="M350.679 64.2006L351.381 62.6299H350.379L350.044 63.432H345.065L344.73 64.2006H350.679Z" fill="#171615"/>
<path d="M404.753 63.432H409.733L410.234 62.6299H411.237L410.234 64.2006H404.285L404.753 63.432Z" fill="#171615"/>
<path d="M22.0918 62.6299L23.1613 64.2006H29.1101L28.6088 63.432H23.6291L23.0944 62.6299H22.0918Z" fill="#171615"/>
<path d="M261.614 54.5757L261.079 58.653H260.077L259.977 59.4551H261.982L262.65 54.5757H261.614Z" fill="#171615"/>
<path d="M219.605 58.6528L219.639 59.4549H221.644V58.6528H219.605Z" fill="#171615"/>
<path d="M237.586 63.4316L237.553 64.2003H243.502L243.568 63.4316H237.586Z" fill="#171615"/>
<path d="M103.704 54.5757H102.668L106.545 64.2007H108.517L108.216 63.4321H107.213L103.704 54.5757Z" fill="#171615"/>
<path d="M273.411 63.432L273.277 64.2006H279.226L279.527 62.6299H278.524L278.391 63.432H273.411Z" fill="#171615"/>
<path d="M23.1602 64.2007L23.6949 64.9694H29.6437L29.109 64.2007H23.1602Z" fill="#6B6562"/>
<path d="M64.8359 64.2007H70.8182L71.2192 64.9694H65.2704L64.8359 64.2007Z" fill="#6B6562"/>
<path d="M80.4434 59.4546L80.811 60.2567H82.8162L82.4486 59.4546H80.4434Z" fill="#6B6562"/>
<path d="M138.928 59.4546L139.162 60.2567H141.167L140.966 59.4546H138.928Z" fill="#6B6562"/>
<path d="M160.117 64.2007L160.284 64.9694H162.256L162.122 64.2007H160.117Z" fill="#6B6562"/>
<path d="M181.305 59.4546L181.405 60.2567H183.41L183.31 59.4546H181.305Z" fill="#6B6562"/>
<path d="M273.278 64.2007H279.227L279.06 64.9694H273.145L273.278 64.2007Z" fill="#6B6562"/>
<path d="M306.999 64.2007L306.799 64.9694H308.771L309.005 64.2007H306.999Z" fill="#6B6562"/>
<path d="M350.68 64.2007L350.345 64.9694H344.396L344.731 64.2007H350.68Z" fill="#6B6562"/>
<path d="M404.286 64.2007L403.785 64.9694H409.734L410.235 64.2007H404.286Z" fill="#6B6562"/>
<path d="M219.639 59.4546V60.2567H221.644V59.4546H219.639Z" fill="#6B6562"/>
<path d="M261.982 59.4546L261.882 60.2567H259.877L259.977 59.4546H261.982Z" fill="#6B6562"/>
<path d="M207.641 37.6646H201.625V38.5335H207.607L207.641 37.6646Z" fill="url(#paint1_linear_1921_2360)"/>
<path d="M99.4258 38.5335H117.439L117.573 37.6646H99.5595L99.4258 38.5335Z" fill="url(#paint2_linear_1921_2360)"/>
<path d="M141.602 37.6646H123.589L123.455 38.5335H141.502L141.602 37.6646Z" fill="url(#paint3_linear_1921_2360)"/>
<path d="M423.769 37.6646H405.756L405.99 38.5335H424.037L423.769 37.6646Z" fill="url(#paint4_linear_1921_2360)"/>
<path d="M4.24414 54.5757H22.6922L22.9595 53.6733H4.54492L4.24414 54.5757Z" fill="url(#paint5_linear_1921_2360)"/>
<path d="M14.6055 47.3565H24.7653L25.0326 46.4541H14.8728L14.6055 47.3565Z" fill="url(#paint6_linear_1921_2360)"/>
<path d="M16.209 42.0428H26.2685L26.5359 41.1738H16.4763L16.209 42.0428Z" fill="url(#paint7_linear_1921_2360)"/>
<path d="M31.8496 43.814H43.9478L44.1817 42.9116H32.0836L31.8496 43.814Z" fill="url(#paint8_linear_1921_2360)"/>
<path d="M47.3223 54.5757H65.7703L65.9708 53.6733H47.5562L47.3223 54.5757Z" fill="url(#paint9_linear_1921_2360)"/>
<path d="M82.5143 42.9116H80.4757L80.3086 43.814H82.3138L82.5143 42.9116Z" fill="url(#paint10_linear_1921_2360)"/>
<path d="M105.809 48.2588H103.771L103.604 49.1277H105.642L105.809 48.2588Z" fill="url(#paint11_linear_1921_2360)"/>
<path d="M161.321 41.1738H153.266L153.166 42.0428H161.22L161.321 41.1738Z" fill="url(#paint12_linear_1921_2360)"/>
<path d="M187.188 46.4541H181.106L181.039 47.3565H187.122L187.188 46.4541Z" fill="url(#paint13_linear_1921_2360)"/>
<path d="M259.91 42.0428H267.965L267.898 41.1738H259.877L259.91 42.0428Z" fill="url(#paint14_linear_1921_2360)"/>
<path d="M279.996 41.1738H273.947L274.014 42.0428H280.063L279.996 41.1738Z" fill="url(#paint15_linear_1921_2360)"/>
<path d="M309.039 48.2588L309.139 49.1277H311.178L311.044 48.2588H309.039Z" fill="url(#paint16_linear_1921_2360)"/>
<path d="M340.62 42.9116H322.473L322.606 43.814H340.787L340.62 42.9116Z" fill="url(#paint17_linear_1921_2360)"/>
<path d="M299.447 53.6733L299.548 54.5757H309.808L309.707 53.6733H299.447Z" fill="url(#paint18_linear_1921_2360)"/>
<path d="M311.746 53.6733L311.88 54.5757H318.029L317.895 53.6733H311.746Z" fill="url(#paint19_linear_1921_2360)"/>
<path d="M324.043 53.6733L324.177 54.5757H342.625L342.458 53.6733H324.043Z" fill="url(#paint20_linear_1921_2360)"/>
<path d="M348.607 53.6733L348.775 54.5757H367.223L367.055 53.6733H348.607Z" fill="url(#paint21_linear_1921_2360)"/>
<path d="M428.483 53.6733H410.035L410.302 54.5757H428.751L428.483 53.6733Z" fill="url(#paint22_linear_1921_2360)"/>
<path d="M250.318 53.6733L250.352 54.5757H260.578L260.545 53.6733H250.318Z" fill="url(#paint23_linear_1921_2360)"/>
<path d="M262.584 53.6733L262.651 54.5757H268.8L268.733 53.6733H262.584Z" fill="url(#paint24_linear_1921_2360)"/>
<path d="M201.123 54.5757H219.571V53.6733H201.156L201.123 54.5757Z" fill="url(#paint25_linear_1921_2360)"/>
<path d="M221.645 53.6733V54.5757H244.203L244.17 53.6733H221.645Z" fill="url(#paint26_linear_1921_2360)"/>
<path d="M274.883 53.6733L274.95 54.5757H293.398L293.297 53.6733H274.883Z" fill="url(#paint27_linear_1921_2360)"/>
<path d="M151.896 54.5757H158.046L158.146 53.6733H151.997L151.896 54.5757Z" fill="url(#paint28_linear_1921_2360)"/>
<path d="M160.117 54.5757H180.604L180.671 53.6733H160.184L160.117 54.5757Z" fill="url(#paint29_linear_1921_2360)"/>
<path d="M182.676 54.5757H194.974L195.008 53.6733H182.709L182.676 54.5757Z" fill="url(#paint30_linear_1921_2360)"/>
<path d="M127.299 54.5757H137.559L137.659 53.6733H127.433L127.299 54.5757Z" fill="url(#paint31_linear_1921_2360)"/>
<path d="M139.598 54.5757H145.747L145.847 53.6733H139.698L139.598 54.5757Z" fill="url(#paint32_linear_1921_2360)"/>
<path d="M96.5176 54.5757H102.667L102.834 53.6733H96.6847L96.5176 54.5757Z" fill="url(#paint33_linear_1921_2360)"/>
<path d="M104.74 54.5757H115L115.134 53.6733H104.907L104.74 54.5757Z" fill="url(#paint34_linear_1921_2360)"/>
<path d="M71.9199 54.5757H78.0693L78.2698 53.6733H72.1204L71.9199 54.5757Z" fill="url(#paint35_linear_1921_2360)"/>
<path d="M80.1426 54.5757H90.3692L90.5697 53.6733H80.3097L80.1426 54.5757Z" fill="url(#paint36_linear_1921_2360)"/>
<path d="M302.488 27.4048H296.572L296.673 28.2403H302.588L302.488 27.4048Z" fill="url(#paint37_linear_1921_2360)"/>
<path d="M125.059 27.4048H119.143L119.043 28.2403H124.958L125.059 27.4048Z" fill="url(#paint38_linear_1921_2360)"/>
<path d="M35.1258 10.9951H17.8474L17.5801 11.7638H34.9252L35.1258 10.9951Z" fill="url(#paint39_linear_1921_2360)"/>
<path d="M65.9048 10.9951H58.2181L58.0176 11.7638H65.7043L65.9048 10.9951Z" fill="url(#paint40_linear_1921_2360)"/>
<path d="M63.3984 21.556H73.1572L73.3577 20.7539H63.5655L63.3984 21.556Z" fill="url(#paint41_linear_1921_2360)"/>
<path d="M61.6264 20.7539H49.9293L49.6953 21.556H61.4259L61.6264 20.7539Z" fill="url(#paint42_linear_1921_2360)"/>
<path d="M98.5901 10.9951H90.9034L90.7363 11.7638H98.4564L98.5901 10.9951Z" fill="url(#paint43_linear_1921_2360)"/>
<path d="M121.683 10.9951H115.901L115.801 11.7638H121.549L121.683 10.9951Z" fill="url(#paint44_linear_1921_2360)"/>
<path d="M133.113 11.7638H150.458L150.525 10.9951H133.214L133.113 11.7638Z" fill="url(#paint45_linear_1921_2360)"/>
<path d="M161.62 15.8413H155.805L155.738 16.6434H161.553L161.62 15.8413Z" fill="url(#paint46_linear_1921_2360)"/>
<path d="M219.739 17.4453H202.26L202.227 18.2808H219.739V17.4453Z" fill="url(#paint47_linear_1921_2360)"/>
<path d="M254.63 15.8413H248.814L248.848 16.6434H254.663L254.63 15.8413Z" fill="url(#paint48_linear_1921_2360)"/>
<path d="M271.874 13.4017L271.807 12.5996H266.025L266.092 13.4017H271.874Z" fill="url(#paint49_linear_1921_2360)"/>
<path d="M387.477 12.5996L387.71 13.4017H399.274L399.073 12.5996H387.477Z" fill="url(#paint50_linear_1921_2360)"/>
<path d="M428.215 13.4017L427.981 12.5996H418.322L418.59 13.4017H428.215Z" fill="url(#paint51_linear_1921_2360)"/>
<path d="M368.893 6.98498L368.693 6.21631H359.168L359.335 6.98498H368.893Z" fill="url(#paint52_linear_1921_2360)"/>
<path d="M368.392 13.4017L368.225 12.5996H358.566L358.734 13.4017H368.392Z" fill="url(#paint53_linear_1921_2360)"/>
<path d="M381.895 13.4017L381.694 12.5996H370.131L370.331 13.4017H381.895Z" fill="url(#paint54_linear_1921_2360)"/>
<path d="M260.746 21.556L260.713 20.7539H256.803L256.836 21.556H260.746Z" fill="url(#paint55_linear_1921_2360)"/>
<path d="M312.414 13.4017L312.314 12.5996H304.594L304.694 13.4017H312.414Z" fill="url(#paint56_linear_1921_2360)"/>
<path d="M319.031 19.0828L318.897 18.2808H313.082L313.182 19.0828H319.031Z" fill="url(#paint57_linear_1921_2360)"/>
<path d="M325.916 13.4017L325.782 12.5996H318.096L318.196 13.4017H325.916Z" fill="url(#paint58_linear_1921_2360)"/>
<path d="M320.467 22.3917H323.408L323.308 21.5562H320.367L320.467 22.3917Z" fill="url(#paint59_linear_1921_2360)"/>
<path d="M309.739 22.3917H312.647L312.546 21.5562H309.605L309.739 22.3917Z" fill="url(#paint60_linear_1921_2360)"/>
<path d="M173.418 13.4017H196.578L196.612 12.5996H173.485L173.418 13.4017Z" fill="url(#paint61_linear_1921_2360)"/>
<path d="M242.898 12.5996H219.771V13.4017H242.932L242.898 12.5996Z" fill="url(#paint62_linear_1921_2360)"/>
<path d="M290.256 23.2271L290.155 22.3916H284.273L284.374 23.2271H290.256Z" fill="url(#paint63_linear_1921_2360)"/>
<path d="M19.0827 32.4844H11.1287L10.8613 33.3533H18.8154L19.0827 32.4844Z" fill="url(#paint64_linear_1921_2360)"/>
<path d="M34.9582 32.4844H29.0093L28.7754 33.3533H34.7242L34.9582 32.4844Z" fill="url(#paint65_linear_1921_2360)"/>
<path d="M52.8371 32.4844H46.8882L46.6543 33.3533H52.6365L52.8371 32.4844Z" fill="url(#paint66_linear_1921_2360)"/>
<path d="M362.678 32.4844L362.845 33.3533H372.804L372.604 32.4844H362.678Z" fill="url(#paint67_linear_1921_2360)"/>
<path d="M374.609 32.4844L374.776 33.3533H386.708L386.507 32.4844H374.609Z" fill="url(#paint68_linear_1921_2360)"/>
<path d="M352.753 32.4844H344.799L344.966 33.3533H352.92L352.753 32.4844Z" fill="url(#paint69_linear_1921_2360)"/>
<path d="M171.947 33.3533H195.809L195.843 32.4844H172.014L171.947 33.3533Z" fill="url(#paint70_linear_1921_2360)"/>
<path d="M221.644 48.2588H219.605V49.1277H221.644V48.2588Z" fill="url(#paint71_linear_1921_2360)"/>
<path d="M267.33 32.4844L267.397 33.3533H273.379L273.312 32.4844H267.33Z" fill="url(#paint72_linear_1921_2360)"/>
<path d="M315.723 37.6646L315.823 38.5335H321.839L321.705 37.6646H315.723Z" fill="url(#paint73_linear_1921_2360)"/>
<path d="M237.551 64.2007L237.518 64.9694H243.433L243.5 64.2007H237.551Z" fill="#6B6562"/>
<path d="M106.545 64.2007L106.846 64.9694H108.818L108.517 64.2007H106.545Z" fill="#6B6562"/>
<path d="M29.1094 64.2007L29.6441 64.9693L30.7804 60.6915L30.2791 59.9229L29.1094 64.2007Z" fill="#3D3938"/>
<path d="M404.286 64.2007L403.785 64.9693L402.648 60.3907L403.116 59.6221L404.286 64.2007Z" fill="#3D3938"/>
</g>
<defs>
<linearGradient id="paint0_linear_1921_2360" x1="216.575" y1="3.41548" x2="216.575" y2="54.3515" gradientUnits="userSpaceOnUse">
<stop stop-color="#D0C5C0"/>
<stop offset="0.99" stop-color="#ABA09C"/>
</linearGradient>
<linearGradient id="paint1_linear_1921_2360" x1="204.628" y1="10.6007" x2="204.628" y2="53.9737" gradientUnits="userSpaceOnUse">
<stop stop-color="#EDE5E2"/>
<stop offset="1" stop-color="#D0C5C0"/>
</linearGradient>
<linearGradient id="paint2_linear_1921_2360" x1="108.503" y1="10.6007" x2="108.503" y2="53.9737" gradientUnits="userSpaceOnUse">
<stop stop-color="#EDE5E2"/>
<stop offset="1" stop-color="#D0C5C0"/>
</linearGradient>
<linearGradient id="paint3_linear_1921_2360" x1="132.534" y1="10.6007" x2="132.534" y2="53.9737" gradientUnits="userSpaceOnUse">
<stop stop-color="#EDE5E2"/>
<stop offset="1" stop-color="#D0C5C0"/>
</linearGradient>
<linearGradient id="paint4_linear_1921_2360" x1="414.903" y1="10.6007" x2="414.903" y2="53.9737" gradientUnits="userSpaceOnUse">
<stop stop-color="#EDE5E2"/>
<stop offset="1" stop-color="#D0C5C0"/>
</linearGradient>
<linearGradient id="paint5_linear_1921_2360" x1="13.6052" y1="10.6013" x2="13.6052" y2="53.9741" gradientUnits="userSpaceOnUse">
<stop stop-color="#EDE5E2"/>
<stop offset="1" stop-color="#D0C5C0"/>
</linearGradient>
<linearGradient id="paint6_linear_1921_2360" x1="19.819" y1="10.5973" x2="19.819" y2="53.9737" gradientUnits="userSpaceOnUse">
<stop stop-color="#EDE5E2"/>
<stop offset="1" stop-color="#D0C5C0"/>
</linearGradient>
<linearGradient id="paint7_linear_1921_2360" x1="21.3724" y1="10.6008" x2="21.3724" y2="53.9738" gradientUnits="userSpaceOnUse">
<stop stop-color="#EDE5E2"/>
<stop offset="1" stop-color="#D0C5C0"/>
</linearGradient>
<linearGradient id="paint8_linear_1921_2360" x1="38.0073" y1="10.6006" x2="38.0073" y2="53.9738" gradientUnits="userSpaceOnUse">
<stop stop-color="#EDE5E2"/>
<stop offset="1" stop-color="#D0C5C0"/>
</linearGradient>
<linearGradient id="paint9_linear_1921_2360" x1="56.6449" y1="10.6013" x2="56.6449" y2="53.9741" gradientUnits="userSpaceOnUse">
<stop stop-color="#EDE5E2"/>
<stop offset="1" stop-color="#D0C5C0"/>
</linearGradient>
<linearGradient id="paint10_linear_1921_2360" x1="81.3981" y1="10.6006" x2="81.3981" y2="53.9738" gradientUnits="userSpaceOnUse">
<stop stop-color="#EDE5E2"/>
<stop offset="1" stop-color="#D0C5C0"/>
</linearGradient>
<linearGradient id="paint11_linear_1921_2360" x1="104.706" y1="10.6007" x2="104.706" y2="53.9737" gradientUnits="userSpaceOnUse">
<stop stop-color="#EDE5E2"/>
<stop offset="1" stop-color="#D0C5C0"/>
</linearGradient>
<linearGradient id="paint12_linear_1921_2360" x1="157.237" y1="10.6844" x2="157.237" y2="53.9371" gradientUnits="userSpaceOnUse">
<stop stop-color="#EDE5E2"/>
<stop offset="1" stop-color="#D0C5C0"/>
</linearGradient>
<linearGradient id="paint13_linear_1921_2360" x1="184.114" y1="10.6007" x2="184.114" y2="53.9737" gradientUnits="userSpaceOnUse">
<stop stop-color="#EDE5E2"/>
<stop offset="1" stop-color="#D0C5C0"/>
</linearGradient>
<linearGradient id="paint14_linear_1921_2360" x1="263.919" y1="10.6008" x2="263.919" y2="53.9738" gradientUnits="userSpaceOnUse">
<stop stop-color="#EDE5E2"/>
<stop offset="1" stop-color="#D0C5C0"/>
</linearGradient>
<linearGradient id="paint15_linear_1921_2360" x1="277.002" y1="10.6008" x2="277.002" y2="53.9738" gradientUnits="userSpaceOnUse">
<stop stop-color="#EDE5E2"/>
<stop offset="1" stop-color="#D0C5C0"/>
</linearGradient>
<linearGradient id="paint16_linear_1921_2360" x1="310.097" y1="10.6007" x2="310.097" y2="53.9737" gradientUnits="userSpaceOnUse">
<stop stop-color="#EDE5E2"/>
<stop offset="1" stop-color="#D0C5C0"/>
</linearGradient>
<linearGradient id="paint17_linear_1921_2360" x1="331.626" y1="10.6006" x2="331.626" y2="53.9738" gradientUnits="userSpaceOnUse">
<stop stop-color="#EDE5E2"/>
<stop offset="1" stop-color="#D0C5C0"/>
</linearGradient>
<linearGradient id="paint18_linear_1921_2360" x1="304.634" y1="10.6013" x2="304.634" y2="53.9741" gradientUnits="userSpaceOnUse">
<stop stop-color="#EDE5E2"/>
<stop offset="1" stop-color="#D0C5C0"/>
</linearGradient>
<linearGradient id="paint19_linear_1921_2360" x1="314.883" y1="10.6013" x2="314.883" y2="53.9741" gradientUnits="userSpaceOnUse">
<stop stop-color="#EDE5E2"/>
<stop offset="1" stop-color="#D0C5C0"/>
</linearGradient>
<linearGradient id="paint20_linear_1921_2360" x1="333.327" y1="10.6013" x2="333.327" y2="53.9741" gradientUnits="userSpaceOnUse">
<stop stop-color="#EDE5E2"/>
<stop offset="1" stop-color="#D0C5C0"/>
</linearGradient>
<linearGradient id="paint21_linear_1921_2360" x1="357.92" y1="10.6013" x2="357.92" y2="53.9741" gradientUnits="userSpaceOnUse">
<stop stop-color="#EDE5E2"/>
<stop offset="1" stop-color="#D0C5C0"/>
</linearGradient>
<linearGradient id="paint22_linear_1921_2360" x1="419.405" y1="10.6013" x2="419.405" y2="53.9741" gradientUnits="userSpaceOnUse">
<stop stop-color="#EDE5E2"/>
<stop offset="1" stop-color="#D0C5C0"/>
</linearGradient>
<linearGradient id="paint23_linear_1921_2360" x1="255.447" y1="10.6013" x2="255.447" y2="53.9741" gradientUnits="userSpaceOnUse">
<stop stop-color="#EDE5E2"/>
<stop offset="1" stop-color="#D0C5C0"/>
</linearGradient>
<linearGradient id="paint24_linear_1921_2360" x1="265.694" y1="10.5979" x2="265.694" y2="53.9741" gradientUnits="userSpaceOnUse">
<stop stop-color="#EDE5E2"/>
<stop offset="1" stop-color="#D0C5C0"/>
</linearGradient>
<linearGradient id="paint25_linear_1921_2360" x1="210.35" y1="10.6013" x2="210.35" y2="53.9741" gradientUnits="userSpaceOnUse">
<stop stop-color="#EDE5E2"/>
<stop offset="1" stop-color="#D0C5C0"/>
</linearGradient>
<linearGradient id="paint26_linear_1921_2360" x1="232.907" y1="10.6013" x2="232.907" y2="53.9741" gradientUnits="userSpaceOnUse">
<stop stop-color="#EDE5E2"/>
<stop offset="1" stop-color="#D0C5C0"/>
</linearGradient>
<linearGradient id="paint27_linear_1921_2360" x1="284.142" y1="10.6013" x2="284.142" y2="53.9741" gradientUnits="userSpaceOnUse">
<stop stop-color="#EDE5E2"/>
<stop offset="1" stop-color="#D0C5C0"/>
</linearGradient>
<linearGradient id="paint28_linear_1921_2360" x1="155.021" y1="10.6013" x2="155.021" y2="53.9741" gradientUnits="userSpaceOnUse">
<stop stop-color="#EDE5E2"/>
<stop offset="1" stop-color="#D0C5C0"/>
</linearGradient>
<linearGradient id="paint29_linear_1921_2360" x1="170.386" y1="10.6013" x2="170.386" y2="53.9741" gradientUnits="userSpaceOnUse">
<stop stop-color="#EDE5E2"/>
<stop offset="1" stop-color="#D0C5C0"/>
</linearGradient>
<linearGradient id="paint30_linear_1921_2360" x1="188.833" y1="10.6013" x2="188.833" y2="53.9741" gradientUnits="userSpaceOnUse">
<stop stop-color="#EDE5E2"/>
<stop offset="1" stop-color="#D0C5C0"/>
</linearGradient>
<linearGradient id="paint31_linear_1921_2360" x1="132.476" y1="10.6013" x2="132.476" y2="53.9741" gradientUnits="userSpaceOnUse">
<stop stop-color="#EDE5E2"/>
<stop offset="1" stop-color="#D0C5C0"/>
</linearGradient>
<linearGradient id="paint32_linear_1921_2360" x1="142.724" y1="10.6013" x2="142.724" y2="53.9741" gradientUnits="userSpaceOnUse">
<stop stop-color="#EDE5E2"/>
<stop offset="1" stop-color="#D0C5C0"/>
</linearGradient>
<linearGradient id="paint33_linear_1921_2360" x1="99.6858" y1="10.6013" x2="99.6858" y2="53.9741" gradientUnits="userSpaceOnUse">
<stop stop-color="#EDE5E2"/>
<stop offset="1" stop-color="#D0C5C0"/>
</linearGradient>
<linearGradient id="paint34_linear_1921_2360" x1="109.932" y1="10.6013" x2="109.932" y2="53.9741" gradientUnits="userSpaceOnUse">
<stop stop-color="#EDE5E2"/>
<stop offset="1" stop-color="#D0C5C0"/>
</linearGradient>
<linearGradient id="paint35_linear_1921_2360" x1="75.0915" y1="10.6013" x2="75.0915" y2="53.9741" gradientUnits="userSpaceOnUse">
<stop stop-color="#EDE5E2"/>
<stop offset="1" stop-color="#D0C5C0"/>
</linearGradient>
<linearGradient id="paint36_linear_1921_2360" x1="85.3394" y1="10.6013" x2="85.3394" y2="53.9741" gradientUnits="userSpaceOnUse">
<stop stop-color="#EDE5E2"/>
<stop offset="1" stop-color="#D0C5C0"/>
</linearGradient>
<linearGradient id="paint37_linear_1921_2360" x1="299.583" y1="10.6846" x2="299.583" y2="53.8403" gradientUnits="userSpaceOnUse">
<stop stop-color="#EDE5E2"/>
<stop offset="1" stop-color="#D0C5C0"/>
</linearGradient>
<linearGradient id="paint38_linear_1921_2360" x1="122.052" y1="10.601" x2="122.052" y2="53.974" gradientUnits="userSpaceOnUse">
<stop stop-color="#EDE5E2"/>
<stop offset="1" stop-color="#D0C5C0"/>
</linearGradient>
<linearGradient id="paint39_linear_1921_2360" x1="26.3596" y1="10.6008" x2="26.3596" y2="53.9737" gradientUnits="userSpaceOnUse">
<stop stop-color="#EDE5E2"/>
<stop offset="1" stop-color="#D0C5C0"/>
</linearGradient>
<linearGradient id="paint40_linear_1921_2360" x1="61.9645" y1="10.6008" x2="61.9645" y2="53.9737" gradientUnits="userSpaceOnUse">
<stop stop-color="#EDE5E2"/>
<stop offset="1" stop-color="#D0C5C0"/>
</linearGradient>
<linearGradient id="paint41_linear_1921_2360" x1="68.3664" y1="10.6008" x2="68.3664" y2="53.9738" gradientUnits="userSpaceOnUse">
<stop stop-color="#EDE5E2"/>
<stop offset="1" stop-color="#D0C5C0"/>
</linearGradient>
<linearGradient id="paint42_linear_1921_2360" x1="55.6692" y1="10.6008" x2="55.6692" y2="53.9738" gradientUnits="userSpaceOnUse">
<stop stop-color="#EDE5E2"/>
<stop offset="1" stop-color="#D0C5C0"/>
</linearGradient>
<linearGradient id="paint43_linear_1921_2360" x1="94.6799" y1="10.6008" x2="94.6799" y2="53.9737" gradientUnits="userSpaceOnUse">
<stop stop-color="#EDE5E2"/>
<stop offset="1" stop-color="#D0C5C0"/>
</linearGradient>
<linearGradient id="paint44_linear_1921_2360" x1="118.733" y1="10.6008" x2="118.733" y2="53.9737" gradientUnits="userSpaceOnUse">
<stop stop-color="#EDE5E2"/>
<stop offset="1" stop-color="#D0C5C0"/>
</linearGradient>
<linearGradient id="paint45_linear_1921_2360" x1="141.823" y1="10.6008" x2="141.823" y2="53.9737" gradientUnits="userSpaceOnUse">
<stop stop-color="#EDE5E2"/>
<stop offset="1" stop-color="#D0C5C0"/>
</linearGradient>
<linearGradient id="paint46_linear_1921_2360" x1="158.678" y1="10.601" x2="158.678" y2="53.9739" gradientUnits="userSpaceOnUse">
<stop stop-color="#EDE5E2"/>
<stop offset="1" stop-color="#D0C5C0"/>
</linearGradient>
<linearGradient id="paint47_linear_1921_2360" x1="210.988" y1="10.6008" x2="210.988" y2="53.9738" gradientUnits="userSpaceOnUse">
<stop stop-color="#EDE5E2"/>
<stop offset="1" stop-color="#D0C5C0"/>
</linearGradient>
<linearGradient id="paint48_linear_1921_2360" x1="251.734" y1="10.601" x2="251.734" y2="53.9739" gradientUnits="userSpaceOnUse">
<stop stop-color="#EDE5E2"/>
<stop offset="1" stop-color="#D0C5C0"/>
</linearGradient>
<linearGradient id="paint49_linear_1921_2360" x1="268.953" y1="10.6011" x2="268.953" y2="53.974" gradientUnits="userSpaceOnUse">
<stop stop-color="#EDE5E2"/>
<stop offset="1" stop-color="#D0C5C0"/>
</linearGradient>
<linearGradient id="paint50_linear_1921_2360" x1="393.382" y1="10.6011" x2="393.382" y2="53.974" gradientUnits="userSpaceOnUse">
<stop stop-color="#EDE5E2"/>
<stop offset="1" stop-color="#D0C5C0"/>
</linearGradient>
<linearGradient id="paint51_linear_1921_2360" x1="423.282" y1="10.6011" x2="423.282" y2="53.974" gradientUnits="userSpaceOnUse">
<stop stop-color="#EDE5E2"/>
<stop offset="1" stop-color="#D0C5C0"/>
</linearGradient>
<linearGradient id="paint52_linear_1921_2360" x1="364.026" y1="10.5843" x2="364.026" y2="53.7601" gradientUnits="userSpaceOnUse">
<stop stop-color="#EDE5E2"/>
<stop offset="1" stop-color="#D0C5C0"/>
</linearGradient>
<linearGradient id="paint53_linear_1921_2360" x1="363.479" y1="10.6011" x2="363.479" y2="53.9706" gradientUnits="userSpaceOnUse">
<stop stop-color="#EDE5E2"/>
<stop offset="1" stop-color="#D0C5C0"/>
</linearGradient>
<linearGradient id="paint54_linear_1921_2360" x1="376.021" y1="10.6011" x2="376.021" y2="53.974" gradientUnits="userSpaceOnUse">
<stop stop-color="#EDE5E2"/>
<stop offset="1" stop-color="#D0C5C0"/>
</linearGradient>
<linearGradient id="paint55_linear_1921_2360" x1="258.785" y1="10.6442" x2="258.785" y2="53.8267" gradientUnits="userSpaceOnUse">
<stop stop-color="#EDE5E2"/>
<stop offset="1" stop-color="#D0C5C0"/>
</linearGradient>
<linearGradient id="paint56_linear_1921_2360" x1="308.501" y1="10.6011" x2="308.501" y2="53.9706" gradientUnits="userSpaceOnUse">
<stop stop-color="#EDE5E2"/>
<stop offset="1" stop-color="#D0C5C0"/>
</linearGradient>
<linearGradient id="paint57_linear_1921_2360" x1="316.051" y1="10.6008" x2="316.051" y2="53.9703" gradientUnits="userSpaceOnUse">
<stop stop-color="#EDE5E2"/>
<stop offset="1" stop-color="#D0C5C0"/>
</linearGradient>
<linearGradient id="paint58_linear_1921_2360" x1="322.004" y1="10.6011" x2="322.004" y2="53.9706" gradientUnits="userSpaceOnUse">
<stop stop-color="#EDE5E2"/>
<stop offset="1" stop-color="#D0C5C0"/>
</linearGradient>
<linearGradient id="paint59_linear_1921_2360" x1="321.891" y1="10.601" x2="321.891" y2="53.9739" gradientUnits="userSpaceOnUse">
<stop stop-color="#EDE5E2"/>
<stop offset="1" stop-color="#D0C5C0"/>
</linearGradient>
<linearGradient id="paint60_linear_1921_2360" x1="311.134" y1="10.601" x2="311.134" y2="53.9739" gradientUnits="userSpaceOnUse">
<stop stop-color="#EDE5E2"/>
<stop offset="1" stop-color="#D0C5C0"/>
</linearGradient>
<linearGradient id="paint61_linear_1921_2360" x1="185.028" y1="10.6011" x2="185.028" y2="53.974" gradientUnits="userSpaceOnUse">
<stop stop-color="#EDE5E2"/>
<stop offset="1" stop-color="#D0C5C0"/>
</linearGradient>
<linearGradient id="paint62_linear_1921_2360" x1="231.34" y1="10.6011" x2="231.34" y2="53.974" gradientUnits="userSpaceOnUse">
<stop stop-color="#EDE5E2"/>
<stop offset="1" stop-color="#D0C5C0"/>
</linearGradient>
<linearGradient id="paint63_linear_1921_2360" x1="287.263" y1="10.6009" x2="287.263" y2="53.9738" gradientUnits="userSpaceOnUse">
<stop stop-color="#EDE5E2"/>
<stop offset="1" stop-color="#D0C5C0"/>
</linearGradient>
<linearGradient id="paint64_linear_1921_2360" x1="14.9637" y1="10.6007" x2="14.9637" y2="53.9737" gradientUnits="userSpaceOnUse">
<stop stop-color="#EDE5E2"/>
<stop offset="1" stop-color="#D0C5C0"/>
</linearGradient>
<linearGradient id="paint65_linear_1921_2360" x1="31.8601" y1="10.6007" x2="31.8601" y2="53.9737" gradientUnits="userSpaceOnUse">
<stop stop-color="#EDE5E2"/>
<stop offset="1" stop-color="#D0C5C0"/>
</linearGradient>
<linearGradient id="paint66_linear_1921_2360" x1="49.744" y1="10.6007" x2="49.744" y2="53.9737" gradientUnits="userSpaceOnUse">
<stop stop-color="#EDE5E2"/>
<stop offset="1" stop-color="#D0C5C0"/>
</linearGradient>
<linearGradient id="paint67_linear_1921_2360" x1="367.738" y1="10.6007" x2="367.738" y2="53.9737" gradientUnits="userSpaceOnUse">
<stop stop-color="#EDE5E2"/>
<stop offset="1" stop-color="#D0C5C0"/>
</linearGradient>
<linearGradient id="paint68_linear_1921_2360" x1="380.658" y1="10.6007" x2="380.658" y2="53.9737" gradientUnits="userSpaceOnUse">
<stop stop-color="#EDE5E2"/>
<stop offset="1" stop-color="#D0C5C0"/>
</linearGradient>
<linearGradient id="paint69_linear_1921_2360" x1="348.858" y1="10.6007" x2="348.858" y2="53.9737" gradientUnits="userSpaceOnUse">
<stop stop-color="#EDE5E2"/>
<stop offset="1" stop-color="#D0C5C0"/>
</linearGradient>
<linearGradient id="paint70_linear_1921_2360" x1="183.89" y1="10.6007" x2="183.89" y2="53.9737" gradientUnits="userSpaceOnUse">
<stop stop-color="#EDE5E2"/>
<stop offset="1" stop-color="#D0C5C0"/>
</linearGradient>
<linearGradient id="paint71_linear_1921_2360" x1="220.62" y1="10.6007" x2="220.62" y2="53.9737" gradientUnits="userSpaceOnUse">
<stop stop-color="#EDE5E2"/>
<stop offset="1" stop-color="#D0C5C0"/>
</linearGradient>
<linearGradient id="paint72_linear_1921_2360" x1="270.355" y1="10.6007" x2="270.355" y2="53.9737" gradientUnits="userSpaceOnUse">
<stop stop-color="#EDE5E2"/>
<stop offset="1" stop-color="#D0C5C0"/>
</linearGradient>
<linearGradient id="paint73_linear_1921_2360" x1="318.779" y1="10.6007" x2="318.779" y2="53.9737" gradientUnits="userSpaceOnUse">
<stop stop-color="#EDE5E2"/>
<stop offset="1" stop-color="#D0C5C0"/>
</linearGradient>
<clipPath id="clip0_1921_2360">
<rect width="432.961" height="74.1264" fill="white"/>
</clipPath>
</defs>
</svg>
