<svg width="64" height="64" viewBox="0 0 64 64" fill="none" xmlns="http://www.w3.org/2000/svg">
<path d="M19.1255 16.2C18.1974 16.2 17.4111 16.5248 16.7667 17.1745C16.1222 17.8242 15.8 18.613 15.8 19.5412C15.8 20.4693 16.1248 21.2555 16.7745 21.9C17.4242 22.5444 18.2131 22.8667 19.1412 22.8667C20.0693 22.8667 20.8556 22.5418 21.5 21.8921C22.1444 21.2425 22.4667 20.4536 22.4667 19.5255C22.4667 18.5974 22.1418 17.8111 21.4921 17.1667C20.8425 16.5222 20.0536 16.2 19.1255 16.2ZM19.1255 43.8C18.1974 43.8 17.4111 44.1248 16.7667 44.7745C16.1222 45.4242 15.8 46.2131 15.8 47.1412C15.8 48.0693 16.1248 48.8555 16.7745 49.5C17.4242 50.1444 18.2131 50.4667 19.1412 50.4667C20.0693 50.4667 20.8556 50.1418 21.5 49.4921C22.1444 48.8425 22.4667 48.0536 22.4667 47.1255C22.4667 46.1974 22.1418 45.4111 21.4921 44.7667C20.8425 44.1222 20.0536 43.8 19.1255 43.8ZM10.2667 8.06665H53.6667C54.3778 8.06665 54.9444 8.27776 55.3667 8.69998C55.7889 9.12221 56 9.69583 56 10.4208V28.3333C56 29.1078 55.7889 29.7569 55.3667 30.2808C54.9444 30.8047 54.3778 31.0667 53.6667 31.0667H10.2667C9.6 31.0667 9.05556 30.8047 8.63333 30.2808C8.21111 29.7569 8 29.1078 8 28.3333V10.4208C8 9.69583 8.21111 9.12221 8.63333 8.69998C9.05556 8.27776 9.6 8.06665 10.2667 8.06665ZM12 12.0667V27.0667H52V12.0667H12ZM10.2667 35.6H53.4C54.0667 35.6 54.6667 35.8778 55.2 36.4333C55.7333 36.9889 56 37.6228 56 38.3351V55.9333C56 56.8222 55.7333 57.5 55.2 57.9667C54.6667 58.4333 54.0667 58.6667 53.4 58.6667H10.6C9.88889 58.6667 9.27778 58.4333 8.76667 57.9667C8.25556 57.5 8 56.8222 8 55.9333V38.3351C8 37.6228 8.21111 36.9889 8.63333 36.4333C9.05556 35.8778 9.6 35.6 10.2667 35.6ZM12 39.6V54.6667H52V39.6H12Z" fill="white"/>
</svg>
