<svg width="365" height="64" viewBox="0 0 365 64" fill="none" xmlns="http://www.w3.org/2000/svg">
<path d="M80.72 48L96.944 12.336H108.56L113.456 48H103.808L103.28 42.336H92.576L90.272 48H80.72ZM96.032 33.984H102.416L101.408 20.256L96.032 33.984ZM128.863 48.288C126.943 48.288 125.215 48.208 123.679 48.048C122.175 47.92 120.847 47.76 119.695 47.568C118.543 47.344 117.551 47.12 116.719 46.896L117.871 39.504C119.375 39.632 121.071 39.744 122.959 39.84C124.879 39.904 126.767 39.936 128.623 39.936C129.839 39.936 130.799 39.872 131.503 39.744C132.239 39.584 132.767 39.344 133.087 39.024C133.439 38.672 133.663 38.208 133.759 37.632L133.855 37.104C133.887 36.976 133.903 36.864 133.903 36.768C133.903 36.672 133.903 36.576 133.903 36.48C133.903 35.84 133.631 35.392 133.087 35.136C132.575 34.88 131.727 34.752 130.543 34.752H128.623C125.711 34.752 123.439 33.968 121.807 32.4C120.207 30.8 119.407 28.784 119.407 26.352C119.407 25.68 119.455 24.992 119.551 24.288L119.983 21.552C120.367 19.248 121.135 17.408 122.287 16.032C123.471 14.624 125.007 13.616 126.895 13.008C128.815 12.368 131.039 12.048 133.567 12.048C134.431 12.048 135.311 12.08 136.207 12.144C137.103 12.176 138.015 12.256 138.943 12.384C139.871 12.48 140.815 12.624 141.775 12.816C142.735 12.976 143.711 13.184 144.703 13.44L143.551 20.832C142.399 20.704 141.151 20.624 139.807 20.592C138.495 20.528 137.183 20.48 135.871 20.448C134.591 20.416 133.423 20.4 132.367 20.4C131.695 20.4 131.103 20.48 130.591 20.64C130.079 20.768 129.647 20.992 129.295 21.312C128.975 21.632 128.767 22.08 128.671 22.656L128.575 23.184C128.543 23.312 128.511 23.456 128.479 23.616C128.479 23.744 128.479 23.872 128.479 24C128.479 24.64 128.671 25.136 129.055 25.488C129.439 25.808 130.063 25.968 130.927 25.968H133.039C136.271 25.968 138.735 26.752 140.431 28.32C142.127 29.856 142.975 31.808 142.975 34.176C142.975 34.752 142.927 35.376 142.831 36.048L142.303 39.408C142.015 41.328 141.407 42.944 140.479 44.256C139.583 45.568 138.207 46.576 136.351 47.28C134.527 47.952 132.031 48.288 128.863 48.288ZM144.328 48L149.992 12.336H159.304L157.096 26.064H167.656L169.864 12.336H179.176L173.512 48H164.2L166.359 34.416H155.799L153.64 48H144.328ZM187.336 48C185 48 183.128 47.408 181.72 46.224C180.344 45.04 179.656 43.232 179.656 40.8C179.656 40.416 179.672 40.032 179.704 39.648C179.736 39.232 179.784 38.816 179.848 38.4L183.976 12.336H193.288L189.352 37.152C189.32 37.28 189.304 37.392 189.304 37.488C189.304 37.584 189.304 37.68 189.304 37.776C189.304 38.384 189.48 38.848 189.832 39.168C190.184 39.488 190.76 39.648 191.56 39.648H201.832L200.488 48H187.336ZM202.173 48L218.397 12.336H230.013L234.909 48H225.261L224.733 42.336H214.029L211.725 48H202.173ZM217.485 33.984H223.869L222.861 20.256L217.485 33.984ZM238.124 48L243.788 12.336H251.18L260.54 32.208L263.708 12.336H273.02L267.356 48H259.964L250.604 28.128L247.436 48H238.124ZM272.156 48L277.82 12.336H291.788C295.116 12.336 297.692 12.864 299.516 13.92C301.34 14.976 302.604 16.448 303.308 18.336C304.012 20.192 304.364 22.352 304.364 24.816C304.364 25.84 304.316 26.912 304.22 28.032C304.156 29.152 304.028 30.304 303.836 31.488C303.356 34.592 302.62 37.2 301.628 39.312C300.668 41.424 299.436 43.12 297.932 44.4C296.46 45.68 294.716 46.608 292.7 47.184C290.684 47.728 288.396 48 285.836 48H272.156ZM282.812 39.648H286.844C287.932 39.648 288.892 39.472 289.724 39.12C290.588 38.736 291.324 38.16 291.932 37.392C292.54 36.624 293.052 35.632 293.468 34.416C293.884 33.2 294.236 31.728 294.524 30C294.684 28.88 294.812 27.92 294.908 27.12C295.004 26.288 295.052 25.664 295.052 25.248C295.052 24.064 294.86 23.152 294.476 22.512C294.092 21.84 293.484 21.376 292.652 21.12C291.852 20.832 290.796 20.688 289.484 20.688H285.788L282.812 39.648ZM314.986 48.288C314.09 48.288 313.114 48.192 312.058 48C311.034 47.776 310.074 47.36 309.178 46.752C308.282 46.144 307.594 45.28 307.114 44.16C306.666 43.008 306.586 41.52 306.874 39.696L309.802 21.312C310.154 19.04 310.81 17.264 311.77 15.984C312.762 14.672 313.978 13.744 315.418 13.2C316.89 12.624 318.49 12.336 320.218 12.336C322.618 12.336 325.018 12.4 327.418 12.528C329.818 12.656 332.282 12.832 334.81 13.056L333.562 20.928H321.658C320.666 20.928 319.962 21.168 319.546 21.648C319.162 22.096 318.89 22.768 318.73 23.664L318.394 25.92L330.202 26.4L329.05 33.792L317.049 34.272L316.618 37.056C316.554 37.568 316.57 38.016 316.666 38.4C316.794 38.784 317.034 39.072 317.386 39.264C317.738 39.456 318.218 39.552 318.826 39.552H330.634L329.385 47.424C327.146 47.648 324.858 47.84 322.522 48C320.186 48.192 317.674 48.288 314.986 48.288ZM334.546 48L340.21 12.336H354.226C355.922 12.336 357.41 12.528 358.69 12.912C360.002 13.264 361.09 13.824 361.954 14.592C362.818 15.328 363.474 16.288 363.922 17.472C364.37 18.624 364.594 20.016 364.594 21.648C364.594 22.128 364.562 22.64 364.498 23.184C364.466 23.696 364.402 24.24 364.306 24.816C364.082 26.416 363.698 27.76 363.154 28.848C362.642 29.936 362.066 30.832 361.426 31.536C360.786 32.208 360.146 32.752 359.506 33.168C358.866 33.584 358.322 33.92 357.874 34.176L361.858 48H352.402L349.378 35.712C349.09 35.712 348.786 35.712 348.466 35.712C348.178 35.712 347.89 35.712 347.602 35.712C347.314 35.712 347.01 35.712 346.69 35.712C346.402 35.712 346.114 35.712 345.826 35.712L343.858 48H334.546ZM346.978 28.32H350.866C351.89 28.32 352.658 28.176 353.17 27.888C353.714 27.568 354.114 27.12 354.37 26.544C354.626 25.936 354.818 25.184 354.946 24.288C355.01 24.032 355.042 23.808 355.042 23.616C355.042 23.392 355.042 23.184 355.042 22.992C355.042 22.512 354.962 22.112 354.802 21.792C354.642 21.44 354.354 21.168 353.938 20.976C353.554 20.784 353.026 20.688 352.354 20.688H348.178L346.978 28.32Z" fill="white"/>
<path fill-rule="evenodd" clip-rule="evenodd" d="M49.6455 58.6995C58.2955 52.9712 64 43.1518 64 32C64 14.3269 49.6731 0 32 0C14.3269 0 0 14.3269 0 32C0 42.5209 5.07731 51.856 12.9153 57.6886C12.9154 57.6885 12.9153 57.6886 12.9153 57.6886C13.4356 58.0757 13.968 58.4475 14.5119 58.8032C14.5119 58.8032 14.512 58.8031 14.5119 58.8032C14.5745 58.8441 14.6372 58.8846 14.7 58.9251C14.7 58.925 14.7 58.9251 14.7 58.9251C15.617 59.5155 16.5661 60.0604 17.5441 60.5565C17.5441 60.5565 17.5441 60.5565 17.5441 60.5565C17.5664 60.5678 17.5887 60.579 17.611 60.5902C17.611 60.5902 17.611 60.5902 17.611 60.5902C18.0914 60.8324 18.5786 61.063 19.0725 61.2814C19.0724 61.2814 19.0725 61.2814 19.0725 61.2814C19.387 61.4204 19.7043 61.5545 20.024 61.6837C20.0241 61.6836 20.024 61.6837 20.024 61.6837C20.9658 62.064 21.9297 62.4008 22.9134 62.6916C22.9134 62.6916 22.9134 62.6916 22.9134 62.6916C22.9871 62.7134 23.061 62.7349 23.135 62.7562C23.135 62.7561 23.135 62.7562 23.135 62.7562C25.24 63.3618 27.434 63.7572 29.6928 63.9182C29.6928 63.9182 29.6929 63.9181 29.6928 63.9182C29.9264 63.9348 30.1607 63.9489 30.3957 63.9605C30.3957 63.9605 30.3957 63.9605 30.3957 63.9605C30.7587 63.9784 31.1233 63.9903 31.4895 63.9961C31.4895 63.996 31.4895 63.9961 31.4895 63.9961C31.6593 63.9987 31.8295 64 32 64C32.1916 64 32.3829 63.9983 32.5737 63.995C32.5737 63.9949 32.5737 63.995 32.5737 63.995C33.5636 63.9776 34.5425 63.9152 35.5084 63.8099C35.5084 63.8099 35.5084 63.8099 35.5084 63.8099C36.2874 63.725 37.058 63.612 37.8191 63.4722C38.0539 63.4291 38.2878 63.3834 38.5208 63.3351C38.5208 63.3351 38.5208 63.3351 38.5208 63.3351C39.1256 63.2099 39.7242 63.0676 40.316 62.9088C40.211 62.7627 40.0637 62.6491 39.8743 62.5679C39.8031 62.5374 39.603 62.5097 39.2741 62.4846C39.1754 62.477 39.0861 62.4179 39.0065 62.3073C38.9259 62.1958 38.8587 62.0767 38.8049 61.95C38.7104 61.7262 38.5631 61.5458 38.3631 61.4089C38.2156 61.3081 38.103 61.1824 38.0255 61.0319C37.9827 60.948 37.9435 60.7887 37.9079 60.5538C37.8761 60.3445 37.8335 60.1563 37.7801 59.9893C37.753 59.9045 37.7057 59.8282 37.6383 59.7604C37.5883 59.7096 37.5143 59.6629 37.4164 59.6205C37.2265 59.5379 37.032 59.469 36.8328 59.4139C36.762 59.394 36.7228 59.3476 36.7152 59.2747C36.6923 59.0467 36.6948 58.8189 36.7228 58.5912C36.822 57.7826 36.5993 57.0936 36.0546 56.5244L35.9306 56.4106C35.7268 56.2241 35.6598 55.9706 35.7297 55.6502C35.7382 55.6112 35.7554 55.5002 35.7812 55.3171C35.8135 55.0874 35.7476 54.892 35.5835 54.7309C35.4958 54.6444 35.4091 54.5565 35.3235 54.4671C35.037 54.167 34.9617 53.8209 35.0978 53.4289C35.1953 53.1487 35.2169 52.8717 35.1626 52.5979C35.041 51.9825 34.7625 51.4701 34.3273 51.0607C34.2395 50.978 34.1662 50.8983 34.1073 50.8216C34.0496 50.7466 34.0015 50.651 33.963 50.5349C33.8523 50.2026 33.8002 49.8892 33.8066 49.5946C33.8172 49.0978 33.9125 48.5522 34.0927 47.9575C34.2135 47.5582 34.422 47.2486 34.7182 47.0287L34.9751 46.8716C35.318 46.6618 35.5405 46.356 35.6426 45.9542C35.6476 45.9342 35.647 45.9131 35.6407 45.8932C35.5784 45.6927 35.5191 45.4916 35.4627 45.2898C35.4008 45.069 35.3678 44.8628 35.3635 44.6712C35.347 43.9677 35.4731 43.287 35.7418 42.6292C35.8007 42.4846 35.8471 42.2526 35.8811 41.933C35.9468 41.3146 36.0796 40.7115 36.2797 40.1236C36.2808 40.1203 36.2821 40.117 36.2835 40.1139L36.2849 40.1108C36.2878 40.1048 36.2912 40.0992 36.2949 40.0944C36.2966 40.0922 36.2983 40.0902 36.3001 40.0883L36.3044 40.0843C36.308 40.0811 36.3119 40.0785 36.3159 40.0766C36.3418 40.0643 36.3583 40.0741 36.3655 40.1058C36.4452 40.4534 36.5052 40.8611 36.5454 41.329C36.5959 41.9123 36.6471 42.4952 36.6993 43.078C36.7065 43.1607 36.7215 43.2741 36.7444 43.4182C36.7898 43.7081 36.8993 43.9647 37.0731 44.1881C37.1337 44.2661 37.2496 44.3671 37.4209 44.4913C37.5463 44.5829 37.665 44.6829 37.7769 44.7914C37.8045 44.8181 37.8557 44.8522 37.9307 44.8938C37.9875 44.9256 38.0344 44.9705 38.0713 45.0285C38.167 45.1803 38.2529 45.3373 38.3287 45.4996C38.6127 46.1083 38.8431 46.7368 39.0198 47.3853C39.0643 47.5481 39.1794 47.7676 39.365 48.044C39.6613 48.4848 40.0813 48.7026 40.6251 48.6975C40.7879 48.6963 40.932 48.7497 41.0574 48.8577C41.0725 48.8708 41.0833 48.8881 41.0883 48.9074C41.0933 48.9267 41.0923 48.9471 41.0854 48.9658C41.0371 49.0959 40.9763 49.2021 40.9029 49.2843C40.8461 49.3483 40.7999 49.4185 40.7643 49.4948C40.7342 49.56 40.716 49.6399 40.7097 49.7345C40.6677 50.352 40.8209 50.9187 41.1693 51.4345C41.2359 51.5328 41.3514 51.6396 41.5158 51.7549C41.5175 51.7562 41.5961 51.8041 41.7517 51.8986C41.9742 52.0342 42.1535 52.216 42.2895 52.4441C42.3802 52.5958 42.4775 52.7433 42.5813 52.8866C42.5888 52.897 42.5976 52.9054 42.6066 52.9106C42.6112 52.9133 42.6158 52.9151 42.6201 52.916C42.6217 52.9163 42.6233 52.9165 42.6248 52.9165L42.6286 52.9164L42.6316 52.9158C42.6388 52.9137 42.6449 52.9095 42.65 52.9031C42.6533 52.899 42.6555 52.8933 42.6562 52.8865C42.6568 52.8818 42.6567 52.8767 42.6559 52.8713L42.6551 52.867L42.6545 52.8643C42.5799 52.5702 42.4849 52.3239 42.3696 52.1256C42.2946 51.9967 42.1906 51.8829 42.0575 51.7841C41.885 51.6557 41.7788 51.5701 41.739 51.5273C41.491 51.2628 41.3117 50.9723 41.2011 50.6557C41.057 50.2412 41.1074 49.8332 41.3524 49.4318C41.4168 49.3263 41.4601 49.1981 41.4821 49.0472C41.505 48.8929 41.4844 48.7651 41.4204 48.6638C41.3145 48.496 41.1394 48.4241 40.8953 48.4483C40.7317 48.4648 40.5605 48.4375 40.3816 48.3663C40.2489 48.3137 40.1231 48.2476 40.004 48.1679C39.7204 47.9776 39.5407 47.6479 39.4648 47.1787C39.4407 47.0287 39.4356 46.7951 39.4496 46.4781C39.4589 46.2679 39.4464 46.0903 39.4121 45.9453C39.329 45.5978 39.1942 45.25 39.0077 44.902C38.8615 44.6282 38.6826 44.4023 38.4711 44.2243C38.4699 44.223 38.3993 44.1713 38.2594 44.0692C37.8356 43.7598 37.6175 43.3128 37.6052 42.7284C37.5997 42.4579 37.6629 42.2397 37.7947 42.0735C37.9418 41.8879 38.1289 41.7154 38.3561 41.556C38.454 41.4878 38.5409 41.3937 38.6167 41.2737C38.8422 40.9177 39.0096 40.5384 39.119 40.1357C39.147 40.0315 39.1694 39.8611 39.1864 39.6246C39.2067 39.344 39.2654 39.0704 39.3625 38.8038C39.3683 38.7877 39.3814 38.7714 39.4 38.7574C39.4453 38.7231 39.4776 38.6692 39.4966 38.5959C39.5221 38.4988 39.5729 38.4122 39.6492 38.3359C39.692 38.2931 39.7687 38.2312 39.8794 38.1502C40.0913 37.9955 40.3333 37.8832 40.6054 37.8133C41.0716 37.6929 41.5974 37.535 42.1827 37.3396C42.7481 37.151 43.1781 36.8101 43.4727 36.3167C43.6185 36.0722 43.7155 35.9168 43.7639 35.8507C43.983 35.551 44.2015 35.2507 44.4193 34.9498C44.7936 34.4336 45.0044 34.1288 45.0519 34.0356C45.3244 33.4956 45.3547 32.8952 45.1428 32.2345C44.9148 31.5237 45.0761 30.9449 45.6266 30.4982C45.8114 30.3486 45.9043 30.2732 45.9051 30.2719C46.5595 29.6717 46.9399 28.9497 47.0463 28.1058C47.1328 27.4184 47.0732 26.7839 46.8676 26.2024C46.7329 25.8218 46.6348 25.4566 46.5733 25.107C46.5063 24.7234 46.5004 24.3485 46.5555 23.9823C46.6631 23.2702 46.9382 22.6279 47.3807 22.0553C47.41 22.0176 47.5786 21.8328 47.8868 21.5009C48.0711 21.3021 48.2267 21.105 48.3534 20.9097C48.5891 20.5481 48.7904 20.2779 48.9574 20.0991C49.2223 19.8159 49.394 19.622 49.4724 19.5173C49.9831 18.8333 50.0596 18.0964 49.7019 17.3068C49.6006 17.0822 49.4944 16.8599 49.3834 16.6399C49.082 16.0423 49.0799 15.4752 49.377 14.9386C49.3935 14.9093 49.516 14.7438 49.7445 14.4421C49.9021 14.2335 50.031 14.0089 50.131 13.7681C50.2344 13.5194 50.2847 13.2697 50.2817 13.0192C50.2762 12.5462 50.1329 12.1097 49.8519 11.7095C49.7044 11.4993 49.5487 11.2957 49.3846 11.0986C48.6349 10.1966 48.3774 9.16014 48.6122 7.98907C48.7249 7.42579 48.9648 6.9246 49.3319 6.4855C49.5808 6.18775 49.8124 5.87826 50.0267 5.55704C50.2614 5.71735 50.4938 5.88069 50.724 6.04703C50.4542 6.71672 50.2466 7.40497 50.1011 8.11177C50.063 8.29657 50.0604 8.482 50.0935 8.66807C50.2075 9.30595 50.454 9.85546 50.8329 10.3166C51.2542 10.8286 51.5761 11.1848 51.7986 11.3853C52.0957 11.6532 52.2689 11.8138 52.318 11.8672C52.8686 12.4653 53.0398 13.1629 52.8317 13.9601C52.805 14.0627 52.7408 14.2189 52.6391 14.4287C52.5882 14.5342 52.506 14.6815 52.3924 14.8706C52.2229 15.1528 52.0898 15.4122 51.9932 15.6487C51.9177 15.8335 51.8785 16.0302 51.8755 16.2387C51.8734 16.3676 51.8853 16.5651 51.9111 16.8312C51.9328 17.0533 51.9734 17.2525 52.0332 17.4289C52.1612 17.8069 52.3019 18.1803 52.4554 18.5491C52.574 18.8356 52.6041 19.1316 52.5456 19.4372C52.3981 20.2082 52.1055 20.8925 51.6676 21.4901C51.5295 21.6783 51.3419 21.8567 51.105 22.0254C50.7795 22.2573 50.4692 22.508 50.1742 22.7775C49.7712 23.1458 49.4662 23.5828 49.2594 24.0885C49.0487 24.6034 48.8813 25.2006 48.7571 25.88C48.6948 26.2204 48.6775 26.519 48.705 26.7758C48.7508 27.2043 48.8699 27.6163 49.0623 28.0118C49.4251 28.7581 49.4923 29.5149 49.2638 30.2821C49.2261 30.4084 49.1301 30.6341 48.9758 30.9591C48.8351 31.2567 48.7482 31.487 48.7152 31.6502C48.6779 31.8337 48.669 32.1993 48.6885 32.7469C48.6978 33.0105 48.655 33.2583 48.56 33.4901C48.4804 33.6847 48.3564 33.8976 48.1881 34.129C47.9843 34.4096 47.7321 34.6442 47.4316 34.8328C47.3616 34.8769 47.2707 34.9555 47.1588 35.0687C47.0715 35.1564 47.0065 35.255 46.9636 35.3643C46.8865 35.561 46.8306 35.7642 46.7958 35.974C46.7327 36.3517 46.6879 36.7314 46.6617 37.1133C46.6494 37.2884 46.6159 37.4227 46.5612 37.5164C46.4544 37.6978 46.2961 37.8319 46.0863 37.9188C45.7383 38.0638 45.3948 38.2776 45.0557 38.5603C44.8451 38.7358 44.5929 38.8566 44.2992 38.9227C44.2975 38.9231 44.2212 38.9352 44.0703 38.9589C43.7673 39.0068 43.5102 39.1467 43.2991 39.3785C43.2233 39.4625 43.0431 39.5949 42.7587 39.7759C42.5693 39.8971 42.4101 40.0931 42.2813 40.364C42.1028 40.7399 42.0312 41.1362 42.0664 41.5528C42.0778 41.6876 42.0905 41.8226 42.1045 41.9578L42.1452 42.2261C42.191 42.5279 42.1439 42.8159 42.0041 43.0901C41.9685 43.1596 41.86 43.3012 41.6786 43.5148C41.5336 43.6856 41.4325 43.8316 41.3753 43.9528C41.2905 44.1334 41.2327 44.3197 41.2017 44.5117C41.1856 44.6125 41.1486 44.621 41.0905 44.5371C40.645 43.8924 40.3522 43.1836 40.2119 42.4105C40.2068 42.3834 40.1938 42.3723 40.1731 42.3774C40.165 42.3794 40.1573 42.3845 40.1507 42.3922C40.1441 42.3999 40.1388 42.41 40.1356 42.4213C40.0995 42.5429 40.0618 42.6639 40.0224 42.7843C39.9588 42.978 39.9281 43.1742 39.9302 43.373C39.9323 43.5341 39.9567 43.729 40.0033 43.9579C40.0682 44.2771 40.1807 44.5795 40.3409 44.8652L40.4827 45.1169C40.6391 45.4123 40.7923 45.7097 40.9424 46.0089C41.1517 46.4276 41.3321 46.754 41.4834 46.988C41.5626 47.1109 41.6813 47.2357 41.8394 47.3624C42.1213 47.5883 42.3743 47.8401 42.5985 48.1177C42.7964 48.3631 42.9848 48.663 43.1637 49.0173C43.435 49.553 43.6749 50.1534 43.8834 50.8184C43.9762 51.1147 44.0322 51.3773 44.0512 51.6061C44.061 51.7278 44.0817 51.8246 44.1135 51.8967C44.1538 51.9891 44.2008 52.0779 44.2547 52.1631C44.2602 52.1715 44.3062 52.2504 44.3926 52.3996C44.4604 52.517 44.5509 52.6157 44.6641 52.6958C44.6815 52.7085 44.6948 52.7242 44.7042 52.7429C44.8038 52.9493 44.9021 53.1563 44.9991 53.364C45.1276 53.6395 45.2443 53.8349 45.3494 53.9502C45.5741 54.196 45.8551 54.36 46.1925 54.4423C46.3951 54.4923 46.497 54.5175 46.4983 54.5179C47.1001 54.7078 47.57 55.0655 47.9078 55.5911C47.9743 55.6945 48.0305 55.8168 48.0762 55.9579C48.1182 56.0863 48.1576 56.2156 48.1945 56.3457C48.3263 56.8137 48.6192 57.1332 49.0731 57.3045C49.196 57.3511 49.32 57.3941 49.445 57.4335C49.8712 57.5685 50.1871 57.8203 50.393 58.1891C50.1464 58.3626 49.8972 58.5328 49.6455 58.6995ZM48.0954 59.6636C48.0431 59.694 47.9907 59.7244 47.9382 59.7546C47.8982 59.7191 47.8507 59.6804 47.7959 59.6383C47.6992 59.5646 47.6041 59.4892 47.5104 59.412C47.4142 59.3328 47.3602 59.2179 47.3483 59.0674C47.3318 58.8576 47.3265 58.6932 47.3324 58.5741C47.3434 58.3537 47.2627 58.1803 47.0902 58.054C46.8842 57.9036 46.6205 57.8241 46.2993 57.8156C45.8568 57.8038 45.5739 57.5887 45.4505 57.1703C45.4132 57.0453 45.3723 56.9211 45.3278 56.7978C45.2401 56.5562 45.0801 56.3826 44.8478 56.2771C44.7292 56.2228 44.6103 56.169 44.4912 56.1156C44.367 56.0592 44.2767 55.9908 44.2203 55.9102C44.1563 55.8187 44.1023 55.7108 44.0582 55.5866C44.0209 55.4815 43.9639 55.3635 43.8872 55.2325C43.8029 55.088 43.7177 54.9922 43.6316 54.9452C43.5206 54.8846 43.3873 54.86 43.2317 54.8714C42.9956 54.8888 42.8208 54.8888 42.7072 54.8714C42.4678 54.835 42.2991 54.7184 42.2012 54.5217C42.174 54.4675 42.1482 54.3806 42.1236 54.2611C42.1054 54.1712 42.0867 54.0816 42.0676 53.9921C42.0312 53.8226 41.9875 53.6935 41.9367 53.605C41.8536 53.4617 41.7426 53.3399 41.6035 53.2394C41.512 53.1729 41.4221 53.104 41.334 53.0328C41.2467 52.962 41.1805 52.8779 41.1356 52.7804C41.1144 52.7333 41.092 52.631 41.0682 52.4733C41.011 52.091 40.854 51.7394 40.5971 51.4186C40.5768 51.3927 40.5598 51.3853 40.5463 51.3963C40.5405 51.4009 40.5368 51.4088 40.5355 51.419C40.5343 51.4291 40.5356 51.441 40.5393 51.4529C40.6732 51.8814 40.7855 52.3154 40.8762 52.755C40.9131 52.9355 40.9684 53.0516 41.0422 53.1033C41.2198 53.228 41.3973 53.3524 41.5749 53.4765C41.6622 53.538 41.7106 53.6268 41.7199 53.7429C41.722 53.7642 41.7292 53.7841 41.7409 53.8008C41.8286 53.9207 41.8793 54.0352 41.8928 54.1441C41.9708 54.7799 42.3323 55.1043 42.9774 55.1174C43.1402 55.1208 43.2932 55.1247 43.4364 55.1289C43.5568 55.1323 43.6435 55.188 43.6965 55.2961C43.8016 55.5101 43.9048 55.725 44.0061 55.9408C44.0955 56.1311 44.2396 56.2633 44.4384 56.3375C44.7508 56.4536 44.9542 56.6715 45.0487 56.991C45.0831 57.1059 45.1187 57.2205 45.1555 57.335C45.3314 57.8805 45.7 58.1615 46.2611 58.178C46.3853 58.1814 46.4635 58.1848 46.4957 58.1882C46.6178 58.2005 46.6954 58.2128 46.7284 58.2251C46.8284 58.2628 46.8956 58.3308 46.93 58.4291C46.9367 58.4491 46.948 58.4662 46.9636 58.4806C47.0293 58.5408 47.0622 58.6093 47.0622 58.686C47.0622 58.936 47.0847 59.1475 47.1296 59.3205C47.1554 59.4201 47.2002 59.5076 47.2637 59.583C47.3451 59.6797 47.4072 59.7528 47.45 59.8024C47.4977 59.8577 47.5533 59.9026 47.6168 59.9371C47.7772 59.8472 47.9367 59.7561 48.0954 59.6636ZM44.8136 61.3314C44.7606 61.3545 44.7075 61.3776 44.6544 61.4005C44.6532 61.3844 44.6521 61.3681 44.6511 61.3517C44.6497 61.3289 44.6485 61.3058 44.6476 61.2824C44.6366 61.0103 44.6442 60.738 44.6705 60.4655C44.6857 60.3074 44.6552 60.1764 44.5789 60.0726C44.5162 59.9878 44.4242 59.8977 44.303 59.8024L44.2575 59.7709L44.0856 59.653C43.8567 59.4966 43.6876 59.2919 43.5782 59.0388C43.5469 58.9664 43.518 58.8636 43.4918 58.7305C43.4587 58.5609 43.4343 58.4573 43.4186 58.4196C43.3241 58.1945 43.176 58.0129 42.9742 57.8747C42.8166 57.7671 42.6884 57.6315 42.5896 57.4679C42.5671 57.4306 42.5445 57.4208 42.5216 57.4386C42.5148 57.4437 42.5093 57.4514 42.5058 57.4611C42.5022 57.4708 42.5007 57.4821 42.5012 57.4939C42.5114 57.6906 42.5981 57.8472 42.7613 57.9638C42.8965 58.0608 43.0045 58.1776 43.0855 58.3141C43.1224 58.3764 43.1764 58.5228 43.2476 58.7534C43.3404 59.053 43.464 59.3404 43.6183 59.6155C43.6789 59.7235 43.7605 59.8125 43.863 59.8825C43.9279 59.9266 43.9885 59.9753 44.0449 60.0287C44.069 60.052 44.1305 60.0974 44.2292 60.1648C44.3433 60.2419 44.3922 60.3635 44.3761 60.5297C44.3579 60.7204 44.3496 60.9253 44.3513 61.1445C44.3525 61.284 44.3589 61.4095 44.3706 61.5212C44.3706 61.5212 44.3706 61.5212 44.3706 61.5212C43.0811 62.0622 41.7486 62.5212 40.3798 62.8916M38.5208 63.3351C38.4527 63.3106 38.3922 63.2862 38.3395 63.2622C38.2654 63.2283 38.1963 63.1668 38.1323 63.0778C38.0458 62.9583 37.9801 62.889 37.9352 62.8699C37.739 62.7881 37.6652 62.8335 37.714 63.006C37.733 63.0732 37.7465 63.1212 37.7544 63.15L37.7612 63.1751L37.7629 63.1821C37.7829 63.2786 37.8016 63.3753 37.8191 63.4722C38.0539 63.4291 38.2878 63.3834 38.5208 63.3351ZM35.5084 63.8099C35.5326 63.5883 35.6047 63.365 35.7247 63.1401C35.7942 63.0092 35.8317 62.9201 35.8372 62.8731C35.8537 62.7311 35.7702 62.6493 35.5867 62.6277C35.1807 62.5802 34.9213 62.3895 34.8085 62.0555C34.8056 62.0462 34.7844 61.9063 34.7449 61.6359C34.7009 61.3337 34.5616 61.0881 34.3273 60.8991C33.8907 60.5477 33.7468 60.1308 33.8956 59.6485C33.9397 59.5065 34.0162 59.3637 34.1251 59.22C34.2238 59.0899 34.3334 58.9685 34.4538 58.8557C34.5669 58.7498 34.6466 58.6601 34.6928 58.5868C34.7721 58.4609 34.782 58.3198 34.7227 58.1634C34.6481 57.9659 34.5396 57.7919 34.3972 57.6414L34.1594 57.3897C33.9093 57.076 33.7345 56.728 33.6349 56.3457C33.5531 56.03 33.5158 55.7127 33.523 55.394C33.5306 55.0609 33.5987 54.7436 33.7271 54.4423C33.8458 54.1646 33.9183 53.8877 33.9445 53.6113C33.97 53.3515 33.9428 53.0711 33.8632 52.7702C33.7229 52.2366 33.4764 51.7655 33.1238 51.3569C33.0551 51.2777 33.0072 51.2887 32.9801 51.39C32.7957 52.0813 32.4255 52.6494 31.8694 53.0945C31.6448 53.2742 31.5011 53.5274 31.4384 53.8542C31.3362 54.3848 31.2885 54.8458 31.2953 55.237C31.2979 55.401 31.3468 55.5546 31.4422 55.6979C31.4492 55.7084 31.4583 55.7173 31.469 55.7241C31.4796 55.7309 31.4916 55.7353 31.504 55.7373C31.5164 55.7392 31.5291 55.7385 31.5413 55.7352C31.5534 55.7319 31.5647 55.7261 31.5744 55.7182C31.7579 55.5699 31.9268 55.3881 32.0811 55.1728C32.157 55.0672 32.1811 55.0778 32.1536 55.2045C32.0858 55.519 31.9838 55.8204 31.8478 56.1086C31.8452 56.1137 31.7723 56.2341 31.6291 56.4697C31.5087 56.6681 31.4443 56.8878 31.4358 57.129C31.4295 57.3095 31.3866 57.4511 31.3074 57.5537C31.1417 57.7677 30.9151 57.9741 30.6278 58.1729C30.5299 58.2407 30.4656 58.2969 30.4351 58.3414C30.3864 58.4122 30.3552 58.4952 30.3417 58.5906C30.326 58.7012 30.2963 58.8458 30.2527 59.0242C30.1607 59.3993 29.9536 59.6911 29.6315 59.8996C29.4171 60.0382 29.2776 60.1688 29.2132 60.2913C29.1271 60.4549 29.0591 60.7085 29.0091 61.0523C28.9782 61.2646 28.9123 61.4651 28.8114 61.6537C28.6931 61.875 28.5175 62.0311 28.2843 62.1223C27.9983 62.2346 27.7045 62.3181 27.4032 62.3727C27.329 62.3863 27.3188 62.3668 27.3727 62.3143C27.4913 62.199 27.6301 62.1276 27.7891 62.1C27.9078 62.0792 27.9862 62.0621 28.0243 62.0485C28.1006 62.0214 28.1761 61.9921 28.2506 61.9608C28.5105 61.8518 28.6764 61.6607 28.7484 61.3873C28.8256 61.0957 28.868 60.7992 28.8756 60.4979C28.8824 60.2296 28.9972 60.0259 29.2202 59.8869C29.3359 59.8149 29.4529 59.7449 29.5711 59.6771C29.7513 59.5737 29.8731 59.4218 29.9367 59.2213C30.0075 58.9962 30.0715 58.7693 30.1287 58.5404C30.1639 58.4001 30.198 58.299 30.231 58.2371C30.284 58.1371 30.3514 58.0523 30.4332 57.9828C30.543 57.8887 30.6333 57.7874 30.7041 57.6789C30.7545 57.6009 30.7837 57.4999 30.7918 57.3757C30.8096 57.1031 30.8393 56.8274 30.8808 56.5485C30.8828 56.5348 30.8817 56.5208 30.8773 56.5076C30.873 56.4944 30.8656 56.4824 30.8558 56.4727C30.8461 56.4629 30.8341 56.4556 30.821 56.4513C30.8079 56.447 30.794 56.4459 30.7803 56.4481C30.5566 56.4829 30.3366 56.5259 30.1204 56.5771C29.8326 56.6454 29.5966 56.7946 29.4122 57.0247C29.288 57.1794 29.178 57.3663 29.0822 57.5855C28.9661 57.8512 28.7777 58.0449 28.517 58.1665C28.364 58.2382 28.2721 58.2874 28.2411 58.3141C28.1703 58.3751 28.1012 58.4554 28.0339 58.555C28.0049 58.5973 27.9893 58.6474 27.9894 58.6987C27.9885 59.4251 27.7128 59.9963 27.1622 60.4121C27.016 60.5218 26.8831 60.6157 26.7636 60.6937C26.625 60.7836 26.4781 60.8563 26.323 60.9118C26.2357 60.9431 26.0933 60.9684 25.8958 60.9874C25.7368 61.0031 25.5936 61.0319 25.466 61.0739C25.2193 61.1553 25.0479 61.3261 24.9517 61.5863C24.8627 61.8283 24.7014 62.001 24.4679 62.1045C24.3102 62.1744 24.1807 62.2217 24.0794 62.2462C23.8828 62.2937 23.7016 62.3575 23.5358 62.4376C23.3883 62.5088 23.2756 62.5883 23.1976 62.676C23.1743 62.7021 23.1534 62.7288 23.135 62.7562C25.24 63.3618 27.434 63.7572 29.6928 63.9182C29.718 63.8836 29.7435 63.8493 29.7695 63.8153C29.8165 63.7534 29.867 63.7009 29.9208 63.6576C29.9996 63.594 30.0617 63.554 30.1071 63.5375C30.4283 63.4205 30.7369 63.3058 31.0327 63.1935C31.1311 63.1562 31.1881 63.0857 31.2038 62.9818C31.2194 62.8784 31.2387 62.7756 31.2616 62.6735C31.2887 62.5535 31.3356 62.4628 31.4021 62.4014C31.4979 62.3124 31.6149 62.256 31.7531 62.2323C31.9116 62.2051 32.0612 62.1623 32.2019 62.1038C32.2292 62.0925 32.2518 62.0722 32.2661 62.0464C32.2804 62.0205 32.2856 61.9906 32.2807 61.9614C32.193 61.4346 32.1568 60.9041 32.172 60.3701C32.1958 59.5555 32.4577 58.8227 32.9578 58.1716C32.9651 58.1623 32.9746 58.1548 32.9855 58.1499C32.9963 58.145 33.0083 58.1428 33.0205 58.1434C33.0327 58.144 33.0447 58.1474 33.0555 58.1535C33.0664 58.1595 33.0758 58.1679 33.0831 58.178L33.3412 58.5347C33.3464 58.5417 33.3491 58.5503 33.3488 58.5588C33.3484 58.5674 33.3451 58.5752 33.3393 58.5811C32.9833 58.9418 32.7707 59.3745 32.7016 59.8793C32.658 60.1968 32.6115 60.514 32.5624 60.831C32.52 61.1006 32.5308 61.3776 32.5948 61.662C32.6677 61.9892 32.6026 62.2689 32.3996 62.5012C32.3873 62.5152 32.31 62.579 32.1676 62.6925C32.0879 62.7561 32.0201 62.8313 31.9641 62.9182C31.9526 62.9356 31.9472 62.9566 31.9489 62.978C31.9819 63.4048 32.1866 63.7413 32.563 63.9876C32.5667 63.99 32.5703 63.9925 32.5737 63.995C33.5636 63.9776 34.5425 63.9152 35.5084 63.8099ZM31.4895 63.9961C31.4152 63.8527 31.3479 63.7095 31.2877 63.5667C31.2841 63.5584 31.2779 63.5515 31.2699 63.5471C31.262 63.5427 31.2528 63.5411 31.2438 63.5425C30.899 63.6004 30.6163 63.7397 30.3957 63.9605C30.7587 63.9784 31.1233 63.9903 31.4895 63.9961ZM22.9134 62.6916C22.9358 62.6429 22.9603 62.5985 22.9865 62.5584C23.1781 62.2659 23.4632 62.0839 23.8416 62.0123C24.1146 61.9601 24.2966 61.8112 24.3878 61.5653L24.4564 61.381C24.6972 60.8707 25.1168 60.6435 25.7152 60.6994C25.989 60.7249 26.216 60.6617 26.3961 60.51C26.6962 60.2565 27.0124 59.9162 27.3447 59.4889C27.5197 59.2639 27.6034 59.0068 27.5958 58.7178C27.5882 58.4122 27.71 58.1803 27.9614 58.0222C28.0339 57.9769 28.203 57.8936 28.4687 57.7724C28.6073 57.7092 28.7031 57.637 28.7561 57.5556C28.8311 57.4395 28.8669 57.3076 28.8635 57.1601C28.8597 57.0025 28.8752 56.8524 28.9099 56.71C28.9388 56.5922 29.0011 56.4572 29.0968 56.305C29.1977 56.1448 29.3028 55.9872 29.4122 55.832C29.5046 55.7006 29.6184 55.6188 29.7536 55.5866C29.938 55.5426 30.0802 55.4578 30.1802 55.3323C30.2501 55.2442 30.2982 55.0971 30.3245 54.8911C30.3593 54.6148 30.3921 54.338 30.423 54.0608C30.4739 53.6056 30.5775 53.1644 30.7339 52.7372C30.8174 52.5091 30.92 52.2966 31.0416 52.0995C31.1663 51.8977 31.3053 51.7053 31.4587 51.5222C31.6956 51.2395 31.9006 50.9352 32.0735 50.6093C32.2112 50.3499 32.2697 50.0805 32.249 49.8012C32.1688 48.7166 32.4823 47.7875 33.1892 47.014L33.3418 46.8646C33.5715 46.6404 33.6563 46.3755 33.5961 46.0699C33.5406 45.7893 33.5143 45.542 33.5173 45.328C33.5198 45.1758 33.5546 45.0156 33.6216 44.8474C33.6907 44.6744 33.7642 44.5257 33.8422 44.401C34.1469 43.9157 34.3881 43.4735 34.5657 43.0742C34.6763 42.825 34.7464 42.5525 34.7761 42.2566C34.7939 42.0812 34.7842 41.8029 34.7469 41.4219C34.6943 40.8827 34.6629 40.3421 34.6528 39.8C34.6477 39.5436 34.6259 39.2938 34.5873 39.0505C34.511 38.5732 34.4466 38.0945 34.394 37.6143L34.3932 37.6094L34.3922 37.605L34.3912 37.6018L34.3899 37.5984L34.3884 37.5951C34.3874 37.5929 34.3862 37.5908 34.3849 37.5888L34.3835 37.5868L34.3808 37.5834C34.3792 37.5816 34.3775 37.5799 34.3758 37.5783L34.3728 37.5759L34.3707 37.5745C34.3679 37.5726 34.3648 37.571 34.3616 37.5698C34.2751 37.5367 34.2249 37.5702 34.2109 37.6702C34.2085 37.6879 34.2134 37.7086 34.2249 37.7287C34.2893 37.8432 34.2664 37.9546 34.1562 38.0631C34.1408 38.0781 34.1298 38.0972 34.1245 38.1185C34.0604 38.3783 33.9954 38.6377 33.9293 38.8966C33.8831 39.0763 33.8206 39.249 33.7417 39.4148C33.6938 39.5156 33.597 39.6706 33.4512 39.8795C33.2482 40.1703 33.1136 40.4059 33.0475 40.5865C32.9627 40.8196 32.9243 41.0461 32.9324 41.2661C32.9396 41.4657 32.9631 41.7205 33.003 42.0303C33.0928 42.7343 32.8767 43.291 32.3545 43.7004C32.3536 43.7013 32.2629 43.7632 32.0824 43.8861C31.884 44.0217 31.7448 44.1563 31.6647 44.2898C31.5833 44.4267 31.5397 44.5685 31.5337 44.7151C31.5231 44.9821 31.549 45.2578 31.6113 45.5422C31.6905 45.9017 31.6583 46.2356 31.5146 46.5442C31.4218 46.7438 31.2923 46.9424 31.1262 47.1399C30.9592 47.3378 30.7666 47.4832 30.5483 47.576C30.1253 47.7557 29.9248 48.063 29.9469 48.4979C29.9587 48.7336 29.9825 48.9681 30.0181 49.2017C30.0664 49.5204 29.9765 49.7876 29.7485 50.0034C29.5417 50.1988 29.3857 50.3181 29.2806 50.3613C29.1831 50.4016 29.0905 50.4732 29.0028 50.5762C28.9765 50.6067 28.94 50.6296 28.8934 50.6449C28.8336 50.6644 28.7951 50.6798 28.7777 50.6913C28.631 50.7858 28.5423 50.9233 28.5113 51.1039C28.4939 51.2069 28.4759 51.3097 28.4573 51.4122C28.4378 51.5216 28.4022 51.6142 28.3505 51.69C28.2932 51.7735 28.2295 51.852 28.1591 51.9253C27.8688 52.2271 27.734 52.5894 27.7548 53.0124C27.7594 53.1133 27.7683 53.2108 27.7815 53.3049C27.7912 53.3761 27.77 53.4361 27.7179 53.4848C27.6106 53.5848 27.5138 53.6834 27.4273 53.7804C27.3214 53.8987 27.2461 54.0129 27.2016 54.1231C27.1249 54.3143 27.1014 54.5107 27.1311 54.7125C27.1679 54.9638 27.1877 55.1744 27.1902 55.3444C27.1906 55.3645 27.1839 55.3843 27.1711 55.4004C26.9541 55.6686 26.8361 55.8433 26.817 55.9242C26.7475 56.2218 26.5714 56.4059 26.2887 56.4767C25.8136 56.5954 25.5688 56.8806 25.5544 57.3324C25.5523 57.4104 25.5631 57.5064 25.5868 57.6204C25.6067 57.7154 25.6277 57.8103 25.6497 57.9053C25.676 58.0201 25.6837 58.1098 25.6726 58.1742C25.6582 58.2581 25.6264 58.3452 25.5773 58.4355C25.4662 58.6415 25.3444 58.8201 25.2117 58.9714C25.1028 59.0965 24.9737 59.1846 24.8245 59.2359C24.6219 59.3054 24.4106 59.3364 24.1907 59.3287C24.0474 59.3241 23.9044 59.3203 23.7615 59.3173C23.2491 59.3063 22.888 59.5292 22.6782 59.9861C22.6409 60.0671 22.6042 60.1486 22.5682 60.2309L22.4881 60.4521C22.4182 60.6441 22.2974 60.7878 22.1257 60.8832C22.0244 60.9395 21.9021 60.9631 21.7589 60.9537C21.6504 60.9461 21.5232 60.9319 21.3774 60.9111C21.0875 60.8696 20.8368 60.958 20.6253 61.1763C20.44 61.3672 20.2396 61.5364 20.024 61.6837C20.9658 62.064 21.9297 62.4008 22.9134 62.6916ZM19.0725 61.2814C19.1351 61.2739 19.1919 61.2547 19.2425 61.2239C19.3023 61.1875 19.361 61.1495 19.4187 61.1101C19.4827 61.0661 19.5568 60.994 19.6412 60.894C19.8552 60.6409 20.1277 60.472 20.4588 60.3873C20.6461 60.3394 20.812 60.2582 20.9566 60.1438C21.0587 60.0624 21.171 59.9217 21.2935 59.7216C21.4478 59.4699 21.5999 59.217 21.75 58.9632C21.8547 58.7868 21.9494 58.6561 22.0342 58.5709C22.1423 58.4624 22.269 58.359 22.4144 58.2607C22.7611 58.0271 23.1061 57.8506 23.4494 57.7311C23.4524 57.7298 23.4805 57.7211 23.5339 57.705C23.7853 57.6274 23.8982 57.4458 23.8728 57.1601C23.83 56.6842 23.9444 56.2605 24.2161 55.8893C24.3356 55.7252 24.449 55.6006 24.5562 55.5154C24.6919 55.4078 24.8489 55.3366 25.0273 55.3018C25.1223 55.2832 25.1524 55.2287 25.1176 55.1384C25.0638 54.9986 25.0356 54.8581 25.0331 54.7169C25.0309 54.5753 25.0706 54.4431 25.1519 54.3202C25.2583 54.1591 25.3952 54.0299 25.5627 53.9324C25.7614 53.8167 25.8665 53.7531 25.878 53.7417C25.9776 53.6442 26.0244 53.5227 26.0185 53.3774C26.0087 53.1315 25.9929 52.9567 25.9708 52.8529C25.8975 52.5091 25.9704 52.1688 26.1895 51.8318C26.3578 51.5724 26.4438 51.4042 26.4476 51.327C26.4701 50.8659 26.5989 50.4382 26.8342 50.0441C27.0647 49.6575 27.4006 49.4316 27.8419 49.3663C27.8448 49.3659 27.9008 49.3613 28.0097 49.3524C28.3433 49.3252 28.4914 49.1479 28.4541 48.8202L28.4341 48.6479L28.4274 48.5882C28.4215 48.358 28.4585 48.1385 28.5387 47.9295C28.6145 47.732 28.7201 47.5404 28.8553 47.3548C29.0138 47.1369 29.2073 46.9723 29.4357 46.8608C29.6103 46.7756 29.733 46.7067 29.8038 46.6542C29.8117 46.6485 29.8181 46.6408 29.8225 46.6319C29.827 46.6229 29.8293 46.6129 29.8292 46.6027C29.8339 45.939 29.9729 45.2886 30.2463 44.6515C30.4926 44.0777 30.8062 43.5661 31.1872 43.1168C31.1885 43.1151 31.2773 43.021 31.4536 42.8345C31.8241 42.4416 32.0406 41.9741 32.1034 41.432C32.1288 41.2108 32.1419 41.0978 32.1428 41.0932C32.1835 40.8041 32.203 40.5863 32.2013 40.4396C32.1996 40.2972 32.1705 40.2639 32.1142 40.3398C32.0998 40.3593 32.0877 40.3849 32.0779 40.4167C31.93 40.8982 31.7259 41.3547 31.4657 41.7862C31.3627 41.957 31.2065 42.1504 30.9971 42.3666C30.525 42.8553 30.0496 43.3821 29.5711 43.9471C29.5457 43.9772 29.5177 44.0048 29.4872 44.0298C28.556 44.8105 27.6369 45.5622 26.7299 46.2848C26.3103 46.6188 25.4149 47.3976 24.0438 48.6212C23.2415 49.3367 22.2709 50.1034 21.132 50.9214C20.3776 51.4627 19.6605 52.0493 18.9806 52.6812C18.7568 52.8889 18.5316 53.0949 18.3048 53.2992C18.1132 53.4721 17.8907 53.6802 17.6372 53.9235C17.2282 54.316 16.8069 54.6949 16.3734 55.0602C16.1305 55.2645 15.795 55.5231 15.3669 55.8359C14.9452 56.1448 14.5858 56.4167 14.2887 56.6515C13.8138 57.0271 13.356 57.3728 12.9153 57.6886C13.4356 58.0757 13.968 58.4475 14.5119 58.8032C14.756 58.4267 15.1017 58.1947 15.5488 58.1074C15.6191 58.0939 15.7334 58.0873 15.8914 58.0877C16.0072 58.0881 16.1222 58.0814 16.2367 58.0674C16.3214 58.0568 16.3939 58.0286 16.4541 57.9828C16.5181 57.9341 16.5764 57.8786 16.6289 57.8162C16.7429 57.681 16.8659 57.5558 16.9977 57.4405C17.1469 57.31 17.2969 57.225 17.4478 57.1856C17.6542 57.1317 17.8674 57.1286 18.0874 57.176C18.1476 57.1892 18.2895 57.208 18.5133 57.2326C18.515 57.2326 18.5595 57.239 18.6468 57.2517C18.8897 57.2869 19.0692 57.215 19.1853 57.0362C19.223 56.9781 19.2637 56.8656 19.3074 56.6986C19.3358 56.5888 19.3682 56.4729 19.4047 56.3508C19.4318 56.2589 19.4875 56.19 19.5719 56.1442L20.0125 55.9058C20.168 55.821 20.2803 55.7388 20.3494 55.6591C20.4516 55.5404 20.5147 55.4116 20.5389 55.2726C20.6452 54.661 20.9504 54.2471 21.4544 54.0309C21.5858 53.9741 21.7833 53.9315 22.0469 53.9031C22.3749 53.8675 22.5756 53.8353 22.649 53.8065C22.952 53.687 23.1334 53.4869 23.1932 53.2063C23.2394 52.9893 23.2646 52.8291 23.2688 52.7257C23.2798 52.4511 23.3879 52.2256 23.5931 52.0493C23.7694 51.8979 23.9552 51.7596 24.1506 51.6341C24.2714 51.5565 24.3378 51.4542 24.3496 51.327C24.3869 50.9333 24.4865 50.5766 24.6484 50.257C24.6853 50.1846 24.73 50.1221 24.7826 50.0695C24.8461 50.0063 24.9072 49.958 24.9657 49.9245C25.2751 49.7453 25.6247 49.6223 26.0147 49.5558C26.0371 49.552 26.0439 49.5603 26.035 49.5806C26.0062 49.6446 25.9575 49.6914 25.8888 49.7211C25.5739 49.8563 25.2876 50.0356 25.0299 50.2589C24.8684 50.3984 24.7499 50.5641 24.6745 50.7561C24.644 50.8337 24.6196 50.9517 24.6014 51.1102C24.5832 51.2658 24.5628 51.3857 24.5403 51.4701C24.5014 51.6155 24.439 51.728 24.3534 51.8077C24.2793 51.8772 24.139 51.9806 23.9326 52.1179C23.78 52.2192 23.6802 52.3847 23.6331 52.6144C23.6077 52.7369 23.5854 52.8601 23.5664 52.9838C23.5422 53.136 23.5119 53.2574 23.4754 53.3481C23.386 53.5685 23.2707 53.7544 23.1296 53.9057C22.9588 54.0892 22.75 54.2058 22.5034 54.2554C22.4275 54.2702 22.2005 54.2848 21.8225 54.2992C21.4168 54.3145 21.128 54.5071 20.9559 54.8771C20.908 54.9801 20.8419 55.1583 20.7576 55.4118C20.6266 55.8064 20.3577 56.0779 19.9508 56.2262C19.8308 56.2703 19.7336 56.3288 19.659 56.4017C19.6043 56.4547 19.5638 56.5377 19.5375 56.6509C19.5155 56.7437 19.4932 56.8363 19.4708 56.9287C19.4127 57.1623 19.2915 57.3346 19.1071 57.4456C18.9779 57.5232 18.8212 57.5539 18.6373 57.5378C18.4729 57.5234 18.3126 57.4848 18.1567 57.4221C17.9587 57.3428 17.764 57.3237 17.5724 57.3649C17.4215 57.3971 17.2763 57.4833 17.1369 57.6236C17.0314 57.73 16.9178 57.8603 16.7961 58.0146C16.6194 58.2384 16.3714 58.3314 16.0523 58.2937C15.8082 58.2649 15.5734 58.2873 15.3479 58.3611C15.1707 58.4192 15.0264 58.5067 14.9149 58.6237C14.8329 58.709 14.7613 58.8095 14.7 58.9251C15.617 59.5155 16.5661 60.0604 17.5441 60.5565C17.6563 60.3773 17.7673 60.2292 17.8769 60.1126C18.0931 59.8825 18.3686 59.7583 18.7034 59.7401C18.7085 59.7398 18.7135 59.7405 18.7182 59.7419C18.7204 59.7426 18.7225 59.7434 18.7244 59.7444L18.7274 59.746L18.7308 59.7484C18.7343 59.7512 18.737 59.7546 18.7388 59.7583C18.7405 59.762 18.7413 59.766 18.7409 59.77C18.7397 59.7814 18.735 59.7922 18.7269 59.8024C18.6952 59.8435 18.6197 59.874 18.5006 59.8939C18.2289 59.9388 18.0096 60.0692 17.8426 60.2849C17.7644 60.386 17.6872 60.4878 17.611 60.5902C18.0914 60.8324 18.5786 61.063 19.0725 61.2814ZM33.9542 0.0587421C33.5105 0.0320155 33.0645 0.0143274 32.6161 0.00585938C32.5935 0.238244 32.6106 0.477276 32.6673 0.722954C32.7584 1.1167 32.9 1.49138 33.092 1.84698C33.3751 2.37085 33.6637 2.89154 33.9579 3.40905C34.1355 3.72099 34.2582 3.97424 34.326 4.16878C34.4218 4.44343 34.487 4.71914 34.5218 4.99591C34.5943 5.57021 34.4665 6.10001 34.1384 6.58531C33.9969 6.79554 33.846 6.99877 33.6858 7.19501C33.5078 7.41328 33.405 7.6233 33.3774 7.82505C33.3503 8.0251 33.3505 8.25991 33.3781 8.52947C33.4154 8.89524 33.4287 9.12581 33.4181 9.22118C33.3829 9.52889 33.2691 9.8118 33.0767 10.0699C32.9246 10.2746 32.7809 10.4853 32.6457 10.7019C32.4973 10.9405 32.4253 11.1946 32.4295 11.4641C32.4321 11.6095 32.467 11.7759 32.5344 11.9632C32.5954 12.1323 32.6658 12.2881 32.7455 12.4305C32.9947 12.8751 33.1695 13.3371 33.27 13.8165C33.3471 14.1882 33.3637 14.5186 33.3196 14.8076C33.2666 15.1492 33.1416 15.4641 32.9445 15.7524C32.5588 16.3152 32.2464 16.7986 32.0074 17.2025C32.0061 17.2046 32.0047 17.2066 32.0031 17.2085L31.9996 17.2122L31.9977 17.2139C31.9962 17.2152 31.9946 17.2163 31.9929 17.2173C31.9905 17.2188 31.988 17.22 31.9855 17.2209C31.9812 17.2223 31.9769 17.2228 31.9729 17.2223C31.9689 17.2217 31.9653 17.2202 31.9622 17.2178C31.944 17.203 31.9389 17.1767 31.947 17.139C31.9923 16.9325 32.0404 16.7431 32.0913 16.5706C32.182 16.2646 32.2333 16.0766 32.2451 16.0067C32.3125 15.6066 32.2926 15.1946 32.1854 14.7707C32.0421 14.2041 31.7857 13.7188 31.4161 13.3148C31.297 13.1843 31.2311 13.1127 31.2184 13.1C31.1561 13.0364 31.0823 12.9722 30.9971 12.9073C30.8467 12.792 30.71 12.6335 30.5871 12.4318C30.4976 12.2847 30.4063 12.1391 30.3131 11.995C30.1978 11.817 30.1111 11.6684 30.053 11.5493C29.8085 11.0484 29.6368 10.5247 29.5381 9.97837C29.4698 9.59861 29.4622 9.25339 29.5152 8.94271C29.5741 8.59644 29.6879 8.26415 29.8566 7.94584C30.2948 7.1185 30.7363 6.29286 31.1809 5.46891C31.5721 4.74457 31.7056 3.97233 31.5814 3.1522C31.5483 2.93392 31.4458 2.56475 31.2737 2.0447C31.1347 1.62552 31.0588 1.3193 31.0461 1.12603C31.0191 0.721354 31.0966 0.348682 31.2787 0.00801017C30.5508 0.024107 29.8288 0.064514 29.1136 0.128449C28.9815 0.446154 28.9283 0.79309 28.9538 1.16926C28.9648 1.33244 28.9807 1.46743 29.0015 1.57424C29.0273 1.7086 29.0697 1.83872 29.1286 1.9646C29.2011 2.12057 29.2749 2.27591 29.3499 2.43061C29.4478 2.6332 29.5118 2.79299 29.5419 2.90997C29.6398 3.28804 29.6269 3.65254 29.5031 4.00348C29.4149 4.25397 29.238 4.5585 28.9722 4.91707C28.7332 5.23877 28.4732 5.50219 28.1922 5.70732C27.8221 5.97689 27.5401 6.18775 27.346 6.33991C27.1684 6.47893 27.0416 6.61519 26.9658 6.7487C26.8802 6.90001 26.8121 7.07739 26.7617 7.28083C26.6028 7.92041 26.622 8.52332 26.8196 9.08958C26.8789 9.25954 26.9895 9.47527 27.1514 9.73678C27.2798 9.94404 27.4091 10.1504 27.5392 10.356C27.7058 10.6196 27.8177 10.8292 27.8749 10.9848C27.9584 11.2111 28.0122 11.4453 28.0364 11.6873L28.072 12.044C28.0962 12.2266 28.1201 12.4093 28.1438 12.592C28.21 13.1014 28.4005 13.5586 28.7154 13.9633C28.9472 14.2609 29.1808 14.5575 29.416 14.8534C29.8326 15.3773 30.1584 15.9488 30.3932 16.568C30.5254 16.9173 30.6028 17.2299 30.6252 17.5058C30.6511 17.8338 30.6223 18.1589 30.5388 18.481C30.4688 18.751 30.4307 18.9322 30.4243 19.0246C30.3874 19.5493 30.4976 20.0473 30.7549 20.5187C30.8562 20.7047 30.9793 20.8431 31.1243 20.9338C31.265 21.0216 31.3847 21.1135 31.4835 21.2097C31.5331 21.2581 31.6338 21.3697 31.7855 21.5448C32.2636 22.0962 32.5401 22.7373 32.6152 23.468C32.6304 23.6205 32.6315 23.7562 32.6183 23.8748C32.6018 24.0262 32.5675 24.1584 32.5153 24.2716C32.4047 24.5119 32.2259 24.831 31.9788 25.229C31.7757 25.5562 31.5503 25.8343 31.3023 26.0631C31.1281 26.2234 31.0241 26.3204 30.9901 26.3543C30.8545 26.4899 30.7509 26.5876 30.6793 26.6474C30.3321 26.9386 30.0884 27.2724 29.9481 27.6487C29.5387 28.7482 29.6031 29.7876 30.1414 30.7671C30.1999 30.8735 30.4023 31.1641 30.7486 31.6388C31.3737 32.4945 31.8474 33.4096 32.1695 34.384C32.3212 34.8426 32.4092 35.3374 32.4333 35.8685L32.4543 36.3313C32.4857 36.7908 32.5232 37.1589 32.5668 37.4356C32.5986 37.6357 32.6753 37.8504 32.797 38.0797C32.8228 38.1276 32.8468 38.1574 32.8688 38.1693C32.9121 38.1922 32.9551 38.1693 32.9979 38.1007C33.0369 38.0383 33.0668 37.9718 33.0875 37.901C33.1863 37.5662 33.345 37.2392 33.5637 36.92C34.3618 35.7541 34.6155 34.4705 34.3247 33.0692C34.2578 32.7471 34.1643 32.4331 34.0443 32.127C33.8714 31.6862 33.7029 31.2438 33.5389 30.7996C33.3202 30.2066 33.1964 29.5946 33.1676 28.9635C33.1464 28.4977 33.207 28.0806 33.3495 27.7123C33.5402 27.2198 33.8157 26.69 34.1759 26.1229C34.2874 25.9474 34.4843 25.6147 34.7666 25.1248C34.7683 25.1214 34.8764 24.9414 35.0908 24.585C35.3362 24.1768 35.5068 23.8034 35.6026 23.4648C35.759 22.9125 35.7444 22.3126 35.5587 21.6649C35.3951 21.0928 35.1785 20.5767 34.909 20.1169C34.7636 19.8685 34.6907 19.7443 34.6903 19.7443C34.3165 19.0314 34.2079 18.2732 34.3648 17.4695C34.3944 17.317 34.4135 17.2237 34.422 17.1898C34.4474 17.0851 34.482 16.9953 34.5256 16.9203C34.9126 16.2586 35.1432 15.827 35.2173 15.6252C35.4301 15.045 35.6605 14.5866 35.9084 14.2501C36.1284 13.9512 36.3231 13.6368 36.4927 13.3066C36.6533 12.9934 36.7143 12.66 36.6758 12.3065C36.6347 11.9323 36.5564 11.6159 36.4412 11.3573C36.2131 10.847 36.0307 10.3692 35.8938 9.9237C35.7789 9.54987 35.7289 9.22584 35.7437 8.95162C35.7666 8.53074 35.8904 8.14589 36.115 7.79707C36.4689 7.2482 36.6995 6.72645 36.8067 6.23183C36.9411 5.61048 36.8523 4.98128 36.5403 4.34425C36.4874 4.2366 36.4278 4.15204 36.3617 4.09058C36.3456 4.07617 36.3339 4.05943 36.3267 4.04036C36.2636 3.86997 36.1727 3.71506 36.054 3.57561C35.6047 3.04793 35.1641 2.51347 34.7322 1.97223C34.3304 1.46828 34.0791 0.897575 33.9782 0.260119C33.9677 0.193621 33.9597 0.126496 33.9542 0.0587421ZM38.6841 32.0666C38.7036 32.0217 38.7235 32.0217 38.7439 32.0666C38.7935 32.1768 38.8176 32.3 38.8164 32.436C38.8151 32.5297 38.8147 32.5776 38.8151 32.5797C38.8257 33.1604 38.7721 33.6558 38.6543 34.0661C38.5106 34.5654 38.2607 35.0041 37.9047 35.3821C37.8454 35.4449 37.7862 35.5146 37.7273 35.5913C37.7163 35.6059 37.7111 35.6242 37.7129 35.6424C37.7146 35.6607 37.7232 35.6776 37.7368 35.6898C37.8203 35.764 37.8971 35.8081 37.967 35.8221C37.9762 35.8239 37.9861 35.8235 37.996 35.821C38.0017 35.8196 38.0074 35.8175 38.0129 35.8147C38.0153 35.8135 38.0177 35.8121 38.02 35.8107L38.0248 35.8075C38.2185 35.668 38.4086 35.5237 38.5951 35.3745C38.9435 35.0956 39.1783 34.7409 39.2996 34.3102C39.414 33.9034 39.5204 33.4943 39.6187 33.0832C39.6657 32.887 39.7469 32.6424 39.8622 32.3496C40.0292 31.9257 40.1434 31.4779 40.2049 31.0062C40.2583 30.5972 40.3011 30.3405 40.3333 30.2363C40.4944 29.7094 40.7983 29.2589 41.245 28.8846C41.6586 28.5379 42.0486 28.1459 42.4148 27.7085C42.6916 27.3783 42.8696 27.089 42.9488 26.8407C43.0798 26.4308 43.0692 26.0044 42.917 25.5615C42.7555 25.0915 42.7144 24.62 42.7937 24.147C42.8479 23.8219 42.9327 23.5413 43.048 23.3052C43.1802 23.0335 43.3699 22.8023 43.617 22.6116C43.7594 22.5014 43.8319 22.4454 43.8344 22.4437C44.2443 22.1047 44.5056 21.8741 44.6183 21.752C45.2812 21.0353 45.6349 20.1758 45.6794 19.1734C45.6959 18.7987 45.6108 18.4711 45.4238 18.1905C45.3416 18.0676 45.1852 17.9159 44.9546 17.7353C44.7817 17.5997 44.6094 17.4632 44.4378 17.3259C44.2907 17.2076 44.1597 17.0771 44.0449 16.9342C43.9283 16.7897 43.8135 16.6437 43.7003 16.4962C43.5681 16.3237 43.4701 16.0929 43.4066 15.8039C43.3438 15.5182 43.3555 15.2652 43.4415 15.0448C43.5068 14.8773 43.5657 14.7078 43.6183 14.5361C43.6789 14.3395 43.7136 14.1644 43.7225 14.011C43.7539 13.4702 43.5969 13.0016 43.2514 12.6053C43.19 12.5341 42.9728 12.3222 42.5998 11.9696C42.3942 11.7746 42.1969 11.5256 42.0079 11.2226C41.8197 10.9199 41.6862 10.6343 41.6074 10.3655C41.384 9.60518 41.4872 8.86579 41.917 8.14738C42.3616 7.40311 42.4508 6.61456 42.1846 5.78171C42.0363 5.31845 41.789 4.91644 41.4427 4.57567C41.1363 4.2739 40.8065 3.99967 40.4535 3.75299C39.9071 3.37154 39.4227 2.92332 39.0001 2.40836C38.6534 1.98579 38.4565 1.50579 38.4095 0.968357C38.4001 0.861408 38.406 0.75387 38.4273 0.645742C37.5154 0.459808 36.5895 0.312655 35.6512 0.206079C35.6247 0.468109 35.6403 0.729619 35.698 0.99061C35.8179 1.5327 36.0798 2.06187 36.4838 2.57811C36.5083 2.60905 36.5598 2.65991 36.6383 2.73069C36.6929 2.78028 36.7398 2.83686 36.7788 2.90044L36.8741 3.05556C37.3645 3.75914 37.6546 4.18997 37.7445 4.34807C38.0128 4.82277 38.1895 5.32587 38.2747 5.85736C38.3192 6.1371 38.3234 6.40009 38.2874 6.64635C38.2484 6.90997 38.1762 7.16661 38.0706 7.41625C37.7154 8.25546 37.7693 9.06097 38.2321 9.83278C38.422 10.1494 38.617 10.5226 38.817 10.9524C38.973 11.2868 39.1603 11.6326 39.379 11.9899C39.5219 12.2243 39.6202 12.4013 39.674 12.5208C39.7571 12.706 39.827 12.8961 39.8838 13.0911C39.9694 13.3835 40.0089 13.6808 40.0021 13.983C39.9847 14.7006 39.7893 15.3745 39.4159 16.0048C39.293 16.2129 39.1574 16.4125 39.009 16.6036C38.6216 17.1017 38.4754 17.6671 38.5703 18.2999C38.6314 18.7093 38.7924 19.0738 39.0535 19.3934C39.5265 19.9728 39.8811 20.6172 40.1171 21.3267C40.2159 21.6234 40.2091 21.9057 40.0968 22.1735C39.9692 22.477 39.7931 22.7659 39.5685 23.0401C39.3193 23.3444 39.1946 23.497 39.1946 23.4978C38.8823 23.9683 38.7918 24.4977 38.9232 25.086C38.9516 25.2119 38.9753 25.3386 38.9944 25.4662C39.0139 25.5963 39.0067 25.723 38.9728 25.8463C38.8622 26.2456 38.6941 26.6165 38.4686 26.9589C38.3813 27.0912 38.2118 27.2889 37.96 27.5521C37.6548 27.8712 37.4213 28.1684 37.2594 28.4434C37.053 28.7948 36.9659 29.1746 36.9981 29.5827C37.0112 29.7472 37.0263 29.9114 37.0432 30.0754C37.0818 30.4416 37.0513 30.801 36.9517 31.1537C36.7525 31.8598 36.5153 32.553 36.2403 33.2333C36.0419 33.7241 36.011 34.2261 36.1474 34.7394C36.2178 35.0022 36.3026 35.2685 36.4017 35.5385C36.4361 35.6326 36.4689 35.6322 36.5003 35.5373C36.6614 35.049 36.9379 34.647 37.33 34.3312C37.5436 34.1591 37.6976 33.9741 37.7922 33.7762C37.9697 33.4041 38.0835 33.1788 38.1336 33.1004C38.3374 32.7834 38.521 32.4388 38.6841 32.0666ZM21.97 57.2364C21.975 57.232 21.9769 57.2241 21.9755 57.2131C21.9741 57.2022 21.9695 57.1884 21.9618 57.1725C21.9542 57.1566 21.9438 57.139 21.9312 57.1207C21.9185 57.1024 21.9039 57.0836 21.8881 57.0656C21.8562 57.0292 21.8216 56.9978 21.7919 56.9783C21.7622 56.9589 21.7398 56.9529 21.7296 56.9618C21.7246 56.9662 21.7227 56.9741 21.7241 56.9851C21.7255 56.9961 21.7302 57.0099 21.7378 57.0257C21.7454 57.0416 21.7558 57.0592 21.7685 57.0775C21.7811 57.0959 21.7958 57.1146 21.8115 57.1326C21.8434 57.169 21.878 57.2004 21.9077 57.2199C21.9374 57.2393 21.9598 57.2453 21.97 57.2364ZM36.759 49.0421C36.9663 49.254 37.1657 49.4375 37.3573 49.5927C37.6154 49.8016 37.7756 49.9468 37.8379 50.0282C37.9926 50.2312 38.098 50.4632 38.1539 50.7243C38.2137 51.0028 38.3137 51.2656 38.454 51.5127C38.4837 51.5644 38.5087 51.5756 38.529 51.5464C38.5338 51.5394 38.5368 51.5305 38.5379 51.5201C38.5385 51.5144 38.5385 51.5084 38.5379 51.5021C38.5375 51.4971 38.5366 51.4919 38.5354 51.4866C38.4692 51.2187 38.4254 51.0053 38.4038 50.8464C38.3597 50.5183 38.2351 50.2403 38.0299 50.0123C37.8934 49.861 37.7426 49.7258 37.5773 49.6067C37.5039 49.5537 37.434 49.4965 37.3675 49.435C37.3069 49.3786 37.2393 49.3197 37.1647 49.2583C36.9773 49.1036 36.8116 48.9084 36.6675 48.6727C36.4492 48.3154 36.3625 47.9397 36.4075 47.5455C36.4168 47.4641 36.3979 47.4294 36.3509 47.4413C36.3422 47.4436 36.3342 47.4488 36.3277 47.4563C36.3212 47.4638 36.3165 47.4733 36.314 47.4839C36.1754 48.0785 36.3238 48.5979 36.759 49.0421ZM37.0381 52.467C36.983 52.6946 36.8758 52.8938 36.7164 53.0646C36.6927 53.0904 36.6781 53.1137 36.6726 53.1345C36.6603 53.1833 36.6787 53.2097 36.7279 53.214C36.7369 53.215 36.7465 53.2137 36.7562 53.2102C36.7658 53.2067 36.7753 53.201 36.7838 53.1936C36.9839 53.0216 37.0977 52.8007 37.1252 52.5312C37.1329 52.4591 37.1161 52.4248 37.075 52.4282C37.0668 52.4287 37.0587 52.4328 37.0521 52.4398C37.0454 52.4468 37.0405 52.4563 37.0381 52.467ZM41.594 59.9028C41.4749 59.7583 41.4115 59.6017 41.4039 59.433C41.3882 59.0914 41.3045 58.8155 41.1528 58.6052C40.9871 58.3759 40.8258 58.1869 40.669 58.0381C40.3858 57.7707 40.1737 57.4727 40.0326 57.1443C39.9368 56.9213 39.831 56.7584 39.7153 56.6554C39.5246 56.4862 39.3354 56.3152 39.1476 56.1423C39.0497 56.052 38.9795 55.9658 38.9372 55.8835C38.8783 55.7678 38.8475 55.6583 38.845 55.5548C38.8284 54.8233 38.5729 54.1941 38.0782 53.6673C37.9914 53.5749 37.9674 53.5935 38.0064 53.7232C38.0382 53.8283 38.0821 53.9282 38.138 54.0227C38.2762 54.2558 38.3883 54.5001 38.4743 54.7557C38.5129 54.871 38.5387 55.0259 38.5519 55.2204C38.5667 55.4358 38.5983 55.6487 38.6466 55.8594C38.6763 55.987 38.7163 56.0859 38.7668 56.1563C38.8227 56.2334 38.8977 56.3125 38.9918 56.3934C39.1949 56.5676 39.3474 56.6865 39.4496 56.7501C39.4678 56.7615 39.482 56.7761 39.4922 56.794C39.5668 56.9224 39.6494 57.0449 39.7401 57.1614C39.8346 57.2822 39.9179 57.403 39.99 57.5238C40.1324 57.7616 40.3083 57.9994 40.5177 58.2371C40.7576 58.5092 40.946 58.8271 41.0829 59.1908C41.0888 59.2073 41.1223 59.3397 41.1833 59.5881C41.2371 59.8094 41.3437 59.9789 41.5031 60.0967C41.6561 60.2095 41.7763 60.3042 41.8636 60.3809C41.8699 60.3864 41.9589 60.4593 42.1306 60.5996C42.2302 60.681 42.3107 60.7789 42.3722 60.8933C42.3785 60.9056 42.3881 60.9289 42.4008 60.9633C42.4241 61.0277 42.4508 61.0368 42.4809 60.9906C42.4915 60.9748 42.4951 60.9537 42.4911 60.9321C42.4529 60.7257 42.3938 60.5744 42.3137 60.4782C42.2484 60.3994 42.1283 60.3025 41.9532 60.1876C41.7727 60.0685 41.6529 59.9736 41.594 59.9028ZM39.9378 58.9365C39.92 58.9615 39.8969 59.0149 39.8685 59.0967C39.8624 59.1139 39.8486 59.1297 39.8298 59.1412C39.7874 59.1666 39.7759 59.1971 39.7954 59.2327C39.7974 59.2362 39.8001 59.2391 39.8034 59.2412L39.8068 59.243L39.8083 59.2436C39.8104 59.2443 39.8125 59.2448 39.8147 59.245L39.818 59.2451L39.8202 59.2449C39.8224 59.2447 39.8247 59.2441 39.8269 59.2433C39.8308 59.2419 39.8344 59.2395 39.8374 59.2365C39.9116 59.1637 39.9652 59.0778 39.9982 58.9791C40.0038 58.9625 40.0044 58.9471 40.0002 58.9327C39.9887 58.892 39.9679 58.8932 39.9378 58.9365ZM49.7743 57.3998C50.1123 57.5371 50.3791 57.7572 50.5747 58.0603C51.0282 57.7365 51.473 57.4011 51.9085 57.0545C51.7005 56.8415 51.2146 56.3166 50.4508 55.4798C50.2308 55.2395 49.9361 54.9356 49.5665 54.5681C49.213 54.2176 48.8697 53.8572 48.5365 53.4867C48.3776 53.3104 48.2309 53.1642 48.0966 53.048C47.9389 52.912 47.7783 52.7802 47.6147 52.6526C47.2972 52.4051 47.0565 52.2084 46.8924 52.0626L46.0399 51.3054C45.8877 51.1698 45.7328 51.0477 45.5751 50.9392C45.4124 50.8269 45.2488 50.7159 45.0843 50.6061C45.0233 50.5654 44.9606 50.5266 44.8962 50.4897C44.8101 50.441 44.7569 50.4488 44.7366 50.5133C44.7338 50.522 44.7333 50.5317 44.735 50.5416C44.7368 50.5515 44.7408 50.5614 44.7467 50.5705C44.8824 50.7777 45.0155 50.9865 45.146 51.1967C45.1473 51.1984 45.2577 51.3633 45.4772 51.6913C45.7426 52.0876 45.9276 52.5223 46.0323 52.9953C46.0958 53.2848 46.2232 53.5009 46.4144 53.6437C46.4682 53.6836 46.6051 53.766 46.8251 53.8911C46.9882 53.9843 47.1198 54.0746 47.2199 54.1619C47.6717 54.5561 48.0052 55.032 48.2205 55.5898C48.2214 55.5911 48.2788 55.782 48.3928 56.1626C48.4649 56.4025 48.5524 56.6013 48.6554 56.759C48.8262 57.0196 49.0742 57.197 49.3993 57.2911L49.719 57.3836C49.7553 57.3941 49.7737 57.3995 49.7743 57.3998ZM23.0775 20.1448C23.0647 20.1741 23.0518 20.1741 23.0387 20.1448C22.9425 19.9249 22.8265 19.7045 22.6909 19.4836C22.2527 18.7674 21.7695 18.0833 21.2414 17.4314C21.2401 17.4301 21.1683 17.3445 21.0259 17.1746C20.5397 16.5935 20.1801 15.9829 19.947 15.3429C19.8554 15.0912 19.7965 14.7748 19.7702 14.3937C19.7694 14.383 19.7666 14.3728 19.7618 14.3639C19.7571 14.355 19.7506 14.3476 19.7429 14.3422C19.6721 14.2939 19.6104 14.2916 19.5579 14.3352C19.5206 14.3662 19.4998 14.4196 19.4956 14.4955C19.4803 14.7841 19.5049 15.0547 19.5693 15.3073C19.7486 16.0084 19.9872 16.7454 20.2852 17.5185C20.3861 17.78 20.4759 18.0451 20.5548 18.3138C20.6997 18.8068 20.9053 19.2728 21.1714 19.7119C21.6144 20.4439 21.9367 21.2227 22.1384 22.0483C22.1999 22.3001 22.2361 22.5478 22.2472 22.7915C22.2582 23.042 22.255 23.2929 22.2376 23.5443C22.2198 23.8003 22.2681 24.0586 22.3826 24.3192C22.5521 24.7049 22.7456 25.0413 22.963 25.3282C23.0707 25.4706 23.1747 25.5855 23.2752 25.6728C23.3464 25.7347 23.4716 25.7985 23.6509 25.8641C23.8493 25.9375 24.0133 26.0224 24.143 26.1191C24.3935 26.306 24.6607 26.5438 24.9447 26.8324C25.1693 27.0613 25.3382 27.2855 25.4514 27.505C25.6129 27.8178 25.729 28.1546 25.7998 28.5153C25.8952 29.0001 26.0789 29.4522 26.351 29.8714C26.429 29.9913 26.5142 30.0985 26.6066 30.193C26.7252 30.3147 26.8325 30.4018 26.9283 30.4543C27.5878 30.8138 28.0898 31.327 28.4344 31.9942C28.5556 32.229 28.6416 32.4892 28.6925 32.7749C28.7959 33.3521 28.9934 33.8998 29.285 34.4177C29.3719 34.5715 29.484 34.7108 29.6213 34.8354C29.7337 34.9375 29.8718 35.0585 30.0359 35.1984C30.5042 35.5994 30.7562 36.1175 30.7918 36.7528C30.8075 37.0338 30.8202 37.3151 30.8299 37.5965C30.8333 37.6876 30.8418 37.7703 30.8554 37.8444C30.8766 37.961 30.8961 38.042 30.9139 38.0873C30.9961 38.2937 31.1444 38.4262 31.3589 38.4847C31.4776 38.5169 31.5134 38.4762 31.4663 38.3626C31.3731 38.1358 31.3108 37.901 31.2794 37.6582C31.2565 37.481 31.2671 37.1101 31.3112 36.5456C31.3434 36.1336 31.268 35.711 31.0849 35.2779C30.97 35.0066 30.7473 34.5999 30.4167 34.0578C30.2158 33.7272 30.106 33.4068 30.0874 33.0966C30.0717 32.8321 30.0611 32.5672 30.0556 32.3019C30.0505 32.0387 30.0049 31.7829 29.9189 31.5345C29.7273 30.9814 29.4783 30.4569 29.1719 29.961C29.124 29.8839 29.0259 29.7457 28.8775 29.5465C28.7766 29.4104 28.6821 29.2695 28.594 29.1237C28.4804 28.9355 28.4047 28.7141 28.367 28.4593C28.3055 28.0461 28.271 27.7905 28.2634 27.6926C28.2481 27.4887 28.2564 27.2874 28.2882 27.0886C28.3369 26.786 28.3613 26.6336 28.3613 26.6315C28.388 26.2208 28.3077 25.8156 28.1203 25.4159C27.9525 25.0574 27.7399 24.7592 27.4826 24.5214C27.4636 24.5032 27.4413 24.4888 27.4159 24.4782L27.3421 24.4464C27.3048 24.4303 27.2701 24.4097 27.2379 24.3847C26.9115 24.1296 26.6839 23.9672 26.5551 23.8977C26.219 23.7172 25.9384 23.4824 25.7133 23.1933C25.4984 22.917 25.3202 22.6054 25.1786 22.2587C24.9981 21.8154 24.9343 21.3432 24.9873 20.8423C25.0301 20.4383 25.1049 20.1111 25.2117 19.8606C25.3372 19.5669 25.4296 19.2902 25.4889 19.0303C25.5482 18.7697 25.5648 18.4817 25.5385 18.1663C25.4677 17.3221 25.206 16.5466 24.7533 15.8401C24.616 15.6256 24.4143 15.372 24.1481 15.0791C23.9294 14.8388 23.7069 14.6021 23.4805 14.3689C23.1601 14.0388 22.8842 13.6999 22.6528 13.3524C22.2366 12.7268 21.7953 12.0266 21.3291 11.2518C21.2952 11.1959 21.2575 11.1418 21.2159 11.0897C21.1744 11.0375 21.1331 10.9854 21.092 10.9333C21.0602 10.893 21.0307 10.8366 21.0036 10.7642C20.9803 10.7031 20.9498 10.6459 20.9121 10.5925C20.8455 10.4984 20.8118 10.4505 20.811 10.4488C20.7198 10.3052 20.6236 10.1649 20.5223 10.028C20.5167 10.0204 20.5089 10.0148 20.5001 10.0123C20.4913 10.0098 20.4821 10.0103 20.474 10.014C20.4104 10.0428 20.3613 10.0879 20.3265 10.1494C20.3172 10.1665 20.3151 10.1875 20.3208 10.2079C20.3492 10.3088 20.3928 10.427 20.4518 10.5626C20.6806 11.0916 20.9082 11.6619 21.1346 12.2735L21.4722 13.2697C21.6909 13.9161 21.9617 14.5402 22.2847 15.142C22.3792 15.3183 22.5051 15.501 22.6623 15.6901C22.9721 16.0622 23.2703 16.4436 23.5568 16.8344C23.7887 17.1502 23.9122 17.4963 23.9275 17.8726C23.9338 18.0286 23.9082 18.2039 23.8505 18.3984C23.7908 18.5993 23.7281 18.7663 23.6624 18.8994C23.4657 19.2952 23.2707 19.7104 23.0775 20.1448ZM25.37 37.0968C25.331 37.0468 25.3416 37.0322 25.4018 37.0529C25.8125 37.1958 26.1713 37.4246 26.4781 37.7395C26.5566 37.8201 26.6559 37.9595 26.7763 38.1579C26.9844 38.5016 27.2466 38.8004 27.5628 39.0543C28.0396 39.437 28.3513 39.9253 28.498 40.5191C28.5412 40.6941 28.5978 41.0877 28.6677 41.6997C28.6715 41.7336 28.6825 41.7593 28.7008 41.7766C28.7364 41.8114 28.7699 41.8084 28.8012 41.7677C28.8173 41.747 28.83 41.7152 28.8394 41.6724C28.9008 41.3935 28.932 41.1127 28.9328 40.83C28.9337 40.4731 28.9133 40.1925 28.8718 39.9882C28.8014 39.6415 28.6372 39.3336 28.3791 39.0645C28.2002 38.878 28.0194 38.6932 27.8368 38.5101C27.6647 38.3372 27.5178 38.1447 27.3962 37.9328C27.1987 37.587 27.0772 37.3801 27.0319 37.3123C26.8272 37.0071 26.6852 36.7024 26.6059 36.3981C26.6013 36.3803 26.5701 36.1487 26.5125 35.7032C26.4701 35.3777 26.3898 35.06 26.2715 34.7502C26.063 34.2043 25.8574 33.6573 25.6548 33.1093C25.6209 33.0177 25.5743 32.9349 25.515 32.8607C25.445 32.7738 25.3891 32.6996 25.3471 32.6382C25.2746 32.5322 25.1861 32.4432 25.0814 32.3712C24.9212 32.261 24.8249 32.191 24.7927 32.1614C24.6118 31.9969 24.4918 31.8835 24.4329 31.8212C24.2689 31.6466 24.1576 31.4665 24.0991 31.2808C24.0292 31.0566 23.9309 30.8631 23.8041 30.7004C23.6422 30.4919 23.56 30.3857 23.5575 30.3819C23.4646 30.2441 23.3716 30.1066 23.2784 29.9693C23.1593 29.7938 23.0594 29.6609 22.9789 29.5706C22.5919 29.1375 22.117 28.837 21.5542 28.6691C21.4393 28.6348 21.3439 28.5873 21.2681 28.5267C21.0875 28.3818 20.9195 28.2237 20.7639 28.0524C20.7334 28.0185 20.5931 27.8323 20.343 27.4936C20.204 27.305 20.0495 27.1289 19.8796 26.9653C19.5079 26.608 19.1135 26.2789 18.6964 25.9779C18.6943 25.9763 18.5568 25.8889 18.2838 25.716C18.0232 25.5507 17.8159 25.35 17.662 25.114C17.278 24.524 16.8928 23.935 16.5062 23.3472C16.4418 23.2488 16.3363 23.1179 16.1896 22.9543C16.0544 22.8034 15.9306 22.6332 15.8183 22.4438C15.7102 22.2615 15.5636 22.1068 15.3784 21.9796C15.3725 21.9758 15.3299 21.9423 15.2506 21.8792C15.1489 21.7982 15.0747 21.826 15.0281 21.9625C15.0219 21.9806 15.0199 21.9998 15.0221 22.0188C15.0243 22.0379 15.0307 22.0562 15.0408 22.0725C15.763 23.2359 16.2367 24.4536 16.4617 25.7255C16.5473 26.2104 16.7383 26.7137 17.0345 27.2355C17.2757 27.6606 17.5881 27.9751 17.9717 28.179C18.2171 28.3091 18.3412 28.375 18.3442 28.3767C18.6252 28.5462 18.8032 28.6638 18.8783 28.7295C18.952 28.7944 19.0393 28.9031 19.1402 29.0557C19.3373 29.3536 19.603 29.5965 19.9374 29.7843L20.2559 29.9375C20.5365 30.0718 20.7607 30.2414 20.9286 30.4461C21.5249 31.1747 21.9199 32.0171 22.1136 32.9732C22.1509 33.1568 22.1834 33.4528 22.2109 33.8614C22.2376 34.2615 22.2777 34.5576 22.3311 34.7496C22.4353 35.1247 22.614 35.4597 22.867 35.7547C23.0849 36.0081 23.244 36.183 23.3445 36.2792C23.7704 36.6874 24.1519 37.1326 24.4888 37.6149C24.5851 37.7518 24.6898 37.8711 24.8029 37.9729C24.9814 38.1327 25.0992 38.2409 25.1564 38.2977C25.3361 38.4762 25.4792 38.6616 25.5855 38.854C25.8937 39.4135 26.1365 40.0207 26.3141 40.6755C26.4218 41.0726 26.5311 41.4696 26.6422 41.8663C26.6998 42.071 26.8187 42.2662 26.9988 42.4518C27.1595 42.6175 27.2413 42.7021 27.2442 42.7055C27.588 43.1052 27.8808 43.5648 28.1229 44.0844C28.1281 44.0955 28.136 44.1051 28.1459 44.1123C28.1558 44.1195 28.1674 44.124 28.1795 44.1255C28.1916 44.1269 28.2038 44.1253 28.2151 44.1207C28.2263 44.116 28.2361 44.1086 28.2437 44.0991C28.3195 44.0033 28.3509 43.8844 28.3377 43.7424C28.331 43.6678 28.314 43.5718 28.2869 43.4544C28.2653 43.3595 28.2326 43.2675 28.189 43.1785C28.0241 42.8449 27.837 42.5239 27.6276 42.2153C27.5666 42.1259 27.5329 42.0273 27.5265 41.9197C27.4951 41.3996 27.3758 40.8904 27.1686 40.3919C26.9571 39.8838 26.7363 39.3794 26.5061 38.8788L26.2881 38.3607C26.1762 38.0932 26.0505 37.8843 25.911 37.7338C25.7224 37.5295 25.5421 37.3172 25.37 37.0968ZM47.1537 40.3245C47.6297 39.9664 48.1595 39.8206 48.7431 39.8871C49.2242 39.9418 49.5686 39.7818 49.7763 39.4071C49.814 39.3397 49.874 39.1539 49.9562 38.8496C50.1181 38.252 50.4286 37.7467 50.8876 37.3339C51.1109 37.1334 51.2425 37.0116 51.2824 36.9684C51.4049 36.8357 51.521 36.6979 51.6308 36.5551C51.805 36.3275 51.9451 36.1673 52.051 36.0745C52.2765 35.8778 52.5228 35.7089 52.7898 35.5678C52.8495 35.5364 52.9042 35.5034 52.9538 35.4686C53.0064 35.4313 53.0596 35.3944 53.1134 35.358C53.1981 35.3003 53.2734 35.241 53.3391 35.18C53.7587 34.7883 54.0836 34.4501 54.3137 34.1653C54.5057 33.9284 54.6316 33.7205 54.6913 33.5416C55.0393 32.5006 55.5837 31.5796 56.3246 30.7786C56.3657 30.7341 56.4308 30.6578 56.5198 30.5497C56.5779 30.4789 56.6452 30.4048 56.722 30.3272C58.1689 28.8603 59.6802 27.5042 61.2556 26.259L61.3636 26.1852C61.4895 26.0992 61.5378 25.9773 61.5086 25.8196C61.5065 25.8081 61.5016 25.7972 61.4944 25.7879C61.4873 25.7787 61.478 25.7712 61.4673 25.7662C61.4567 25.7613 61.445 25.7589 61.4333 25.7593C61.4216 25.7598 61.4101 25.763 61.3999 25.7688C61.2549 25.8506 61.1174 25.9421 60.9873 26.0434C60.7999 26.1897 60.6681 26.2878 60.5918 26.3378C60.1519 26.6273 59.8658 26.8205 59.7336 26.9176C58.9702 27.4783 58.2073 28.0399 57.4448 28.6024C57.1236 28.8393 56.7234 29.115 56.2445 29.4295C55.8347 29.6991 55.5265 29.9184 55.3201 30.0875C55.065 30.2969 54.7799 30.5463 54.465 30.8358C54.2552 31.0282 54.0759 31.2185 53.9271 31.4067C53.8339 31.5241 53.6811 31.7352 53.4688 32.0399C53.2615 32.3379 53.0797 32.6517 52.9233 32.9815C52.5702 33.7275 52.0192 34.2732 51.2703 34.6186C50.9791 34.7525 50.731 34.8881 50.5258 35.0255C50.2702 35.1963 50.1132 35.2952 50.0547 35.3224C49.8843 35.4012 49.7063 35.4584 49.5207 35.494C49.2689 35.5423 49.1064 35.5809 49.0331 35.6097C48.8762 35.6716 48.7258 35.7479 48.5817 35.8386C48.4371 35.9293 48.2941 36.0226 48.1525 36.1183C47.9745 36.2383 47.8427 36.3466 47.7571 36.4432C47.5693 36.6568 47.4411 36.9075 47.3724 37.1953C47.283 37.5687 47.2101 37.8383 47.1537 38.004C47.0635 38.2681 46.902 38.5039 46.6693 38.7116C46.3395 39.0053 45.9846 39.2652 45.6044 39.4911C45.459 39.5771 45.3153 39.6657 45.1733 39.7568L44.7461 40.0295C44.5507 40.1673 44.3572 40.3451 44.1657 40.563C43.5562 41.2551 43.108 41.9966 42.821 42.7875C42.6854 43.1617 42.5826 43.4163 42.5127 43.551C42.3029 43.9541 42.1624 44.3222 42.0912 44.6553C42.0047 45.061 41.9928 45.4041 42.0556 45.6847C42.1556 46.1314 42.3237 46.544 42.5597 46.9225C42.5932 46.9763 42.6159 46.9721 42.6278 46.9098C42.6964 46.5448 42.7312 46.1776 42.732 45.808C42.7329 45.4914 42.7458 45.2619 42.7708 45.1195C42.8619 44.6036 43.0408 44.0649 43.3074 43.5034C43.5536 42.9846 43.8495 42.5506 44.1949 42.2013C44.2432 42.1526 44.407 42.0197 44.6864 41.8027C44.8979 41.6382 45.0882 41.4511 45.2573 41.2413C45.6612 40.7403 46.1884 40.4691 46.839 40.4275C46.9683 40.4195 47.0732 40.3852 47.1537 40.3245ZM17.47 35.3287C17.7337 35.4767 17.9799 35.6498 18.2088 35.8482C18.3512 35.9719 18.4692 36.1177 18.5629 36.2856C18.6752 36.4869 18.7645 36.6808 18.8306 36.8673C19.0887 37.598 19.5132 38.1825 20.104 38.6207C20.1591 38.6618 20.3922 38.8013 20.8033 39.039C21.0394 39.1759 21.266 39.3275 21.483 39.4936C21.6101 39.5911 21.7273 39.6958 21.8345 39.8077C21.9706 39.9492 22.0713 40.0711 22.1365 40.1732C22.3891 40.57 22.6759 40.9402 22.9967 41.2839C23.2392 41.5442 23.5227 41.7446 23.8474 41.8853C23.8577 41.8899 23.8685 41.8925 23.8788 41.8928C23.8891 41.8931 23.8988 41.8912 23.9071 41.8873C23.9398 41.872 23.959 41.848 23.965 41.8154C23.9701 41.7874 23.9599 41.755 23.9345 41.7181C23.8518 41.599 23.7081 41.4231 23.5034 41.1905C23.3542 41.0209 23.2218 40.8058 23.1061 40.5452L22.8575 39.8426C22.7672 39.5879 22.6606 39.3402 22.5377 39.0994C22.4224 38.8744 22.2885 38.6669 22.1359 38.477C21.9549 38.2515 21.7803 38.0752 21.612 37.9481C21.3149 37.7243 21.0685 37.478 20.8726 37.2093C20.6043 36.8406 20.3649 36.4201 20.1542 35.948C20.0495 35.7123 19.89 35.5245 19.6755 35.3847C19.6208 35.3491 19.5272 35.2632 19.3945 35.1272C19.1012 34.8258 18.7558 34.5976 18.3582 34.4425C18.2476 34.3993 17.946 34.3242 17.4535 34.2174C16.783 34.0712 16.1744 33.8552 15.6276 33.5696C15.3241 33.4106 15.0196 33.1807 14.714 32.8798C14.6729 32.8391 14.5994 32.7747 14.4934 32.6865C14.4175 32.6234 14.3487 32.5534 14.2868 32.4767C14.1376 32.2923 14.0617 32.1989 14.0592 32.1963C13.5773 31.6742 12.9292 31.0246 12.115 30.2477C11.2339 29.4064 10.5837 28.7995 10.1645 28.4269C10.1166 28.3845 10.0363 28.3356 9.92355 28.28C9.82522 28.2317 9.74172 28.166 9.67306 28.083C9.57812 27.9689 9.51073 27.8958 9.47089 27.8636C9.16488 27.6186 8.84593 27.3917 8.51407 27.1827C8.46956 27.1543 8.43099 27.1363 8.39836 27.1287C8.31698 27.11 8.27587 27.1352 8.27502 27.2043C8.2746 27.2446 8.29409 27.2859 8.33351 27.3283C8.58315 27.5962 8.84763 27.8488 9.12694 28.0861C9.78983 28.649 10.418 29.247 11.0113 29.8803C11.0847 29.9587 11.3703 30.2719 11.8683 30.8199C12.6296 31.6574 13.3783 32.506 14.1145 33.3655C14.5379 33.8601 15.031 34.2647 15.5939 34.5792C15.738 34.6597 15.915 34.7358 16.1248 34.8074L16.6722 34.9943C17.0172 35.1126 17.2831 35.224 17.47 35.3287ZM10.4067 33.8315C10.5059 33.9532 10.5822 34.0309 10.6356 34.0648C10.6424 34.0691 10.647 34.0735 10.6496 34.0782C10.653 34.0845 10.6555 34.0909 10.6572 34.0973C10.6577 34.099 10.658 34.1009 10.6579 34.1027C10.6579 34.1042 10.6577 34.1058 10.6573 34.1073C10.6566 34.1099 10.6553 34.1124 10.6536 34.1147L10.6522 34.1163L10.6487 34.1194L10.6458 34.1213L10.643 34.1226C10.6395 34.124 10.6356 34.1247 10.6318 34.1246C10.4822 34.1178 10.334 34.099 10.1874 34.068C9.36938 33.8955 8.584 33.6276 7.83126 33.2644C7.63036 33.1674 7.42882 33.0703 7.22665 32.9732C7.12662 32.9249 7.0925 32.9539 7.12429 33.0603C7.16201 33.1866 7.23979 33.2686 7.35762 33.3064C7.36906 33.3102 7.40212 33.3127 7.4568 33.314C7.50384 33.3148 7.53393 33.3367 7.54707 33.3795C7.55028 33.3897 7.55504 33.399 7.56105 33.4068C7.56706 33.4145 7.57421 33.4206 7.58204 33.4246C7.7431 33.5077 7.94824 33.6486 8.19746 33.8474C8.49245 34.0835 8.93748 34.3378 9.53256 34.6103C10.0869 34.8646 10.7187 34.9979 11.4278 35.0102C11.7172 35.0153 11.9663 35.0556 12.1748 35.131C12.683 35.315 13.1528 35.5981 13.5843 35.9804C13.7445 36.1224 13.8744 36.2211 13.974 36.2767C14.0863 36.339 14.2323 36.414 14.412 36.5017C14.7142 36.6496 14.9878 36.8577 15.2328 37.126C15.3833 37.2905 15.5914 37.5596 15.8571 37.9334C16.097 38.2717 16.3098 38.6269 16.4954 38.999C16.5734 39.1562 16.6605 39.3595 16.7567 39.6087C16.8364 39.8151 16.9157 40.0219 16.9945 40.2292C17.0899 40.4797 17.2092 40.6941 17.3524 40.8726C17.5131 41.0726 17.7258 41.2123 17.9907 41.2915C18.2679 41.3746 18.4631 41.4628 18.5763 41.556C18.7649 41.712 18.956 41.8644 19.1497 42.0131C19.3349 42.156 19.5265 42.2301 19.7244 42.2356C20.2343 42.2496 20.6726 42.4035 21.0392 42.6972C21.1452 42.782 21.1994 42.8252 21.202 42.8269C21.622 43.1418 22.066 43.4158 22.5339 43.6489C23.0315 43.8969 23.3241 44.0482 23.4119 44.1029C23.6844 44.2737 23.9559 44.4712 24.2263 44.6954C24.7425 45.1231 25.1952 45.5355 25.5843 45.9326C25.6283 45.9775 25.6692 46.0044 25.707 46.0133C25.7981 46.0354 25.8331 45.9788 25.8119 45.8436C25.7741 45.6033 25.6866 45.3829 25.5493 45.1824C25.2954 44.8115 25.0095 44.4699 24.6917 44.1576C24.4348 43.9054 24.121 43.621 23.7501 43.3044C23.4114 43.0153 23.0527 42.7525 22.6737 42.516C22.5805 42.4575 22.4654 42.3778 22.3285 42.277C22.2149 42.1935 22.0971 42.1168 21.975 42.0468C21.8636 41.9828 21.7591 41.9059 21.6616 41.816C21.5209 41.6868 21.3698 41.57 21.2083 41.4657C21.135 41.4183 20.9305 41.2682 20.5948 41.0156C19.9217 40.5096 19.4032 39.9321 19.0391 39.2832C18.97 39.1598 18.8997 39.0013 18.828 38.8076C18.7683 38.6449 18.7074 38.4825 18.6456 38.3206C18.5981 38.1956 18.5324 38.0858 18.4485 37.9913C18.1933 37.7052 17.9445 37.4736 17.7021 37.2964C17.6322 37.2456 17.5949 37.1873 17.5902 37.1216C17.5889 37.1001 17.5818 37.0805 17.5699 37.0656L17.3626 36.8056C17.3514 36.7911 17.3343 36.7796 17.3136 36.7725C17.2721 36.7586 17.245 36.7316 17.2323 36.6918C17.2242 36.6672 17.2147 36.649 17.2037 36.6371C17.0282 36.4447 16.7836 36.2434 16.47 36.0332C16.0309 35.7382 15.7098 35.5423 15.5068 35.4457C15.1406 35.2711 14.7793 35.0867 14.4228 34.8926C14.4084 34.8845 14.3474 34.8606 14.2397 34.8208C14.1736 34.7962 14.1183 34.757 14.0738 34.7031C14.0047 34.6196 13.9543 34.5686 13.9225 34.5499C13.8025 34.4791 13.6718 34.4327 13.5302 34.4107C13.0966 34.3437 12.6607 34.2977 12.2225 34.2727C12.0101 34.2604 11.7637 34.1998 11.4831 34.0909C11.4826 34.0905 11.4197 34.0739 11.2943 34.0413C11.2273 34.0235 11.1699 33.9879 11.122 33.9345C11.0783 33.887 11.0552 33.8618 11.0527 33.8588C10.7021 33.5189 10.3544 33.176 10.0094 32.8302C9.94411 32.7649 9.86548 32.7266 9.77351 32.7151C9.7129 32.7075 9.69658 32.7308 9.72456 32.785C9.91401 33.1576 10.1414 33.5064 10.4067 33.8315Z" fill="white"/>
</svg>
